<?xml version="1.0" encoding="utf-8" standalone="no"?>
<!DOCTYPE svg PUBLIC "-//W3C//DTD SVG 1.1//EN"
  "http://www.w3.org/Graphics/SVG/1.1/DTD/svg11.dtd">
<svg xmlns:xlink="http://www.w3.org/1999/xlink" width="623.622047pt" height="651.968504pt" viewBox="0 0 623.622047 651.968504" xmlns="http://www.w3.org/2000/svg" version="1.1">
 <metadata>
  <rdf:RDF xmlns:dc="http://purl.org/dc/elements/1.1/" xmlns:cc="http://creativecommons.org/ns#" xmlns:rdf="http://www.w3.org/1999/02/22-rdf-syntax-ns#">
   <cc:Work>
    <dc:type rdf:resource="http://purl.org/dc/dcmitype/StillImage"/>
    <dc:date>2026-02-04T14:55:30.198781</dc:date>
    <dc:format>image/svg+xml</dc:format>
    <dc:creator>
     <cc:Agent>
      <dc:title>Matplotlib v3.9.4, https://matplotlib.org/</dc:title>
     </cc:Agent>
    </dc:creator>
   </cc:Work>
  </rdf:RDF>
 </metadata>
 <defs>
  <style type="text/css">*{stroke-linejoin: round; stroke-linecap: butt}</style>
 </defs>
 <g id="figure_1">
  <g id="patch_1">
   <path d="M 0 651.968504 
L 623.622047 651.968504 
L 623.622047 0 
L 0 0 
L 0 651.968504 
z
" style="fill: none"/>
  </g>
  <g id="axes_1">
   <g id="patch_2">
    <path d="M 77.952756 580.251969 
L 561.259843 580.251969 
L 561.259843 130.393701 
L 77.952756 130.393701 
L 77.952756 580.251969 
z
" style="fill: none"/>
   </g>
   <g id="matplotlib.axis_1">
    <g id="xtick_1">
     <g id="line2d_1">
      <defs>
       <path id="m780878a370" d="M 0 0 
L 0 3.5 
" style="stroke: #000000; stroke-width: 0.8"/>
      </defs>
      <g>
       <use xlink:href="#m780878a370" x="99.92126" y="580.251969" style="stroke: #000000; stroke-width: 0.8"/>
      </g>
     </g>
     <g id="text_1">
      <!-- 2020 -->
      <g transform="translate(81.935791 599.321969) scale(0.17 -0.17)">
       <defs>
        <path id="Mukta-Regular-32" d="M 1434 3629 
Q 1229 3629 1043 3558 
Q 858 3488 634 3315 
L 384 3693 
Q 672 3936 931 4013 
Q 1190 4090 1434 4090 
Q 1766 4090 2006 3997 
Q 2246 3904 2406 3744 
Q 2566 3584 2643 3366 
Q 2720 3149 2720 2893 
Q 2720 2662 2624 2422 
Q 2528 2182 2352 1929 
Q 2176 1677 1926 1405 
Q 1677 1133 1363 832 
L 986 467 
L 2816 467 
L 2816 0 
L 390 0 
L 288 403 
L 819 934 
Q 1171 1286 1424 1561 
Q 1677 1837 1837 2067 
Q 1997 2298 2070 2490 
Q 2144 2682 2144 2874 
Q 2144 3200 1968 3414 
Q 1792 3629 1434 3629 
z
" transform="scale(0.015625)"/>
        <path id="Mukta-Regular-30" d="M 1843 4090 
Q 2176 4090 2464 3971 
Q 2752 3853 2963 3603 
Q 3174 3354 3292 2960 
Q 3411 2566 3411 2016 
Q 3411 1466 3283 1072 
Q 3155 678 2937 428 
Q 2720 179 2438 60 
Q 2157 -58 1843 -58 
Q 1504 -58 1219 60 
Q 934 179 723 428 
Q 512 678 393 1072 
Q 275 1466 275 2016 
Q 275 2541 403 2931 
Q 531 3322 745 3581 
Q 960 3840 1245 3965 
Q 1530 4090 1843 4090 
z
M 864 2016 
Q 864 1510 947 1193 
Q 1030 877 1164 697 
Q 1299 518 1478 451 
Q 1658 384 1850 384 
Q 2042 384 2218 457 
Q 2394 531 2528 720 
Q 2662 909 2742 1222 
Q 2822 1536 2822 2016 
Q 2822 2515 2739 2835 
Q 2656 3155 2521 3334 
Q 2387 3514 2208 3581 
Q 2029 3648 1837 3648 
Q 1645 3648 1469 3574 
Q 1293 3501 1158 3312 
Q 1024 3123 944 2809 
Q 864 2496 864 2016 
z
" transform="scale(0.015625)"/>
       </defs>
       <use xlink:href="#Mukta-Regular-32"/>
       <use xlink:href="#Mukta-Regular-30" x="48.299988"/>
       <use xlink:href="#Mukta-Regular-32" x="105.799973"/>
       <use xlink:href="#Mukta-Regular-30" x="154.09996"/>
      </g>
     </g>
    </g>
    <g id="xtick_2">
     <g id="line2d_2">
      <g>
       <use xlink:href="#m780878a370" x="209.76378" y="580.251969" style="stroke: #000000; stroke-width: 0.8"/>
      </g>
     </g>
     <g id="text_2">
      <!-- 2021 -->
      <g transform="translate(193.57128 599.321969) scale(0.17 -0.17)">
       <defs>
        <path id="Mukta-Regular-31" d="M 1344 4032 
L 1754 4032 
L 1754 0 
L 1203 0 
L 1203 3443 
L 480 3110 
L 352 3578 
L 1344 4032 
z
" transform="scale(0.015625)"/>
       </defs>
       <use xlink:href="#Mukta-Regular-32"/>
       <use xlink:href="#Mukta-Regular-30" x="48.299988"/>
       <use xlink:href="#Mukta-Regular-32" x="105.799973"/>
       <use xlink:href="#Mukta-Regular-31" x="154.09996"/>
      </g>
     </g>
    </g>
    <g id="xtick_3">
     <g id="line2d_3">
      <g>
       <use xlink:href="#m780878a370" x="319.606299" y="580.251969" style="stroke: #000000; stroke-width: 0.8"/>
      </g>
     </g>
     <g id="text_3">
      <!-- 2022 -->
      <g transform="translate(302.403096 599.321969) scale(0.17 -0.17)">
       <use xlink:href="#Mukta-Regular-32"/>
       <use xlink:href="#Mukta-Regular-30" x="48.299988"/>
       <use xlink:href="#Mukta-Regular-32" x="105.799973"/>
       <use xlink:href="#Mukta-Regular-32" x="154.09996"/>
      </g>
     </g>
    </g>
    <g id="xtick_4">
     <g id="line2d_4">
      <g>
       <use xlink:href="#m780878a370" x="429.448819" y="580.251969" style="stroke: #000000; stroke-width: 0.8"/>
      </g>
     </g>
     <g id="text_4">
      <!-- 2023 -->
      <g transform="translate(412.18585 599.321969) scale(0.17 -0.17)">
       <defs>
        <path id="Mukta-Regular-33" d="M 339 3789 
Q 589 3955 857 4022 
Q 1126 4090 1370 4090 
Q 1638 4090 1865 4013 
Q 2093 3936 2253 3798 
Q 2413 3661 2502 3472 
Q 2592 3283 2592 3059 
Q 2592 2682 2397 2432 
Q 2202 2182 1920 2080 
Q 2272 2003 2502 1744 
Q 2733 1485 2733 1120 
Q 2733 794 2605 570 
Q 2477 346 2272 208 
Q 2067 70 1808 6 
Q 1549 -58 1280 -58 
Q 1011 -58 742 -6 
Q 474 45 269 141 
L 397 576 
Q 506 538 602 502 
Q 698 467 800 444 
Q 902 422 1014 409 
Q 1126 397 1274 397 
Q 1434 397 1590 435 
Q 1747 474 1868 563 
Q 1990 653 2067 790 
Q 2144 928 2144 1133 
Q 2144 1312 2077 1446 
Q 2010 1581 1891 1664 
Q 1773 1747 1613 1788 
Q 1453 1830 1261 1830 
L 781 1830 
L 781 2266 
L 1152 2266 
Q 1523 2266 1769 2445 
Q 2016 2624 2016 2995 
Q 2016 3130 1961 3248 
Q 1907 3366 1814 3452 
Q 1722 3539 1597 3590 
Q 1472 3642 1325 3642 
Q 1120 3642 941 3590 
Q 762 3539 518 3398 
L 339 3789 
z
" transform="scale(0.015625)"/>
       </defs>
       <use xlink:href="#Mukta-Regular-32"/>
       <use xlink:href="#Mukta-Regular-30" x="48.299988"/>
       <use xlink:href="#Mukta-Regular-32" x="105.799973"/>
       <use xlink:href="#Mukta-Regular-33" x="154.09996"/>
      </g>
     </g>
    </g>
    <g id="xtick_5">
     <g id="line2d_5">
      <g>
       <use xlink:href="#m780878a370" x="539.291339" y="580.251969" style="stroke: #000000; stroke-width: 0.8"/>
      </g>
     </g>
     <g id="text_5">
      <!-- 2024 -->
      <g transform="translate(521.637901 599.321969) scale(0.17 -0.17)">
       <defs>
        <path id="Mukta-Regular-34" d="M 2067 4032 
L 2573 4032 
L 2573 1491 
L 3206 1491 
L 3206 1024 
L 2573 1024 
L 2573 0 
L 2048 0 
L 2048 1024 
L 128 1024 
L 128 1376 
L 2067 4032 
z
M 762 1491 
L 2048 1491 
L 2048 2605 
L 2080 3411 
L 2067 3411 
L 1754 2867 
L 762 1491 
z
" transform="scale(0.015625)"/>
       </defs>
       <use xlink:href="#Mukta-Regular-32"/>
       <use xlink:href="#Mukta-Regular-30" x="48.299988"/>
       <use xlink:href="#Mukta-Regular-32" x="105.799973"/>
       <use xlink:href="#Mukta-Regular-34" x="154.09996"/>
      </g>
     </g>
    </g>
   </g>
   <g id="matplotlib.axis_2">
    <g id="ytick_1">
     <g id="line2d_6">
      <defs>
       <path id="mec502a7453" d="M 0 0 
L -3.5 0 
" style="stroke: #000000; stroke-width: 0.8"/>
      </defs>
      <g>
       <use xlink:href="#mec502a7453" x="77.952756" y="559.176368" style="stroke: #000000; stroke-width: 0.8"/>
      </g>
     </g>
     <g id="text_6">
      <!-- 2K -->
      <g transform="translate(52.95135 565.211368) scale(0.17 -0.17)">
       <defs>
        <path id="Mukta-Regular-4b" d="M 512 0 
L 512 4032 
L 1101 4032 
L 1101 2208 
L 2797 4032 
L 3526 4032 
L 1862 2246 
L 3654 0 
L 2912 0 
L 1440 1843 
L 1101 1478 
L 1101 0 
L 512 0 
z
" transform="scale(0.015625)"/>
       </defs>
       <use xlink:href="#Mukta-Regular-32"/>
       <use xlink:href="#Mukta-Regular-4b" x="48.299988"/>
      </g>
     </g>
    </g>
    <g id="ytick_2">
     <g id="line2d_7">
      <g>
       <use xlink:href="#mec502a7453" x="77.952756" y="521.890919" style="stroke: #000000; stroke-width: 0.8"/>
      </g>
     </g>
     <g id="text_7">
      <!-- 4K -->
      <g transform="translate(52.050881 527.925919) scale(0.17 -0.17)">
       <use xlink:href="#Mukta-Regular-34"/>
       <use xlink:href="#Mukta-Regular-4b" x="53.599991"/>
      </g>
     </g>
    </g>
    <g id="ytick_3">
     <g id="line2d_8">
      <g>
       <use xlink:href="#mec502a7453" x="77.952756" y="484.60547" style="stroke: #000000; stroke-width: 0.8"/>
      </g>
     </g>
     <g id="text_8">
      <!-- 6K -->
      <g transform="translate(52.252756 490.64047) scale(0.17 -0.17)">
       <defs>
        <path id="Mukta-Regular-36" d="M 2016 4090 
Q 2451 4090 2790 3962 
L 2656 3507 
Q 2522 3565 2368 3600 
Q 2214 3635 2035 3635 
Q 1754 3635 1542 3529 
Q 1331 3424 1187 3238 
Q 1043 3053 963 2790 
Q 883 2528 877 2214 
Q 1056 2438 1309 2544 
Q 1562 2650 1830 2650 
Q 2099 2650 2336 2563 
Q 2573 2477 2749 2307 
Q 2925 2138 3027 1894 
Q 3130 1651 3130 1338 
Q 3130 1018 3024 762 
Q 2918 506 2729 323 
Q 2541 141 2285 41 
Q 2029 -58 1722 -58 
Q 1446 -58 1190 48 
Q 934 154 732 384 
Q 531 614 409 976 
Q 288 1338 288 1850 
Q 288 2470 432 2896 
Q 576 3322 816 3587 
Q 1056 3853 1366 3971 
Q 1677 4090 2016 4090 
z
M 877 1472 
Q 877 1242 937 1043 
Q 998 845 1113 697 
Q 1229 550 1389 464 
Q 1549 378 1741 378 
Q 1926 378 2076 448 
Q 2227 518 2336 646 
Q 2445 774 2505 947 
Q 2566 1120 2566 1325 
Q 2566 1779 2336 1990 
Q 2106 2202 1722 2202 
Q 1434 2202 1238 2067 
Q 1043 1933 941 1754 
Q 902 1683 889 1612 
Q 877 1542 877 1472 
z
" transform="scale(0.015625)"/>
       </defs>
       <use xlink:href="#Mukta-Regular-36"/>
       <use xlink:href="#Mukta-Regular-4b" x="52.399994"/>
      </g>
     </g>
    </g>
    <g id="ytick_4">
     <g id="line2d_9">
      <g>
       <use xlink:href="#mec502a7453" x="77.952756" y="447.32002" style="stroke: #000000; stroke-width: 0.8"/>
      </g>
     </g>
     <g id="text_9">
      <!-- 8K -->
      <g transform="translate(52.576818 453.35502) scale(0.17 -0.17)">
       <defs>
        <path id="Mukta-Regular-38" d="M 1626 4090 
Q 1939 4090 2172 4006 
Q 2406 3923 2566 3782 
Q 2726 3642 2806 3462 
Q 2886 3283 2886 3085 
Q 2886 2797 2697 2541 
Q 2509 2285 2118 2131 
Q 2560 1946 2774 1706 
Q 2989 1466 2989 1088 
Q 2989 806 2886 595 
Q 2784 384 2601 237 
Q 2419 90 2169 16 
Q 1920 -58 1626 -58 
Q 1338 -58 1085 19 
Q 832 96 646 237 
Q 461 378 352 579 
Q 243 781 243 1037 
Q 243 1427 444 1664 
Q 646 1901 1075 2086 
Q 749 2234 563 2474 
Q 378 2714 378 3027 
Q 378 3238 454 3430 
Q 531 3622 688 3769 
Q 845 3917 1078 4003 
Q 1312 4090 1626 4090 
z
M 909 3059 
Q 909 2912 969 2797 
Q 1030 2682 1129 2595 
Q 1229 2509 1363 2441 
Q 1498 2374 1645 2323 
Q 1792 2381 1920 2451 
Q 2048 2522 2144 2614 
Q 2240 2707 2294 2819 
Q 2349 2931 2349 3072 
Q 2349 3206 2291 3315 
Q 2234 3424 2134 3504 
Q 2035 3584 1904 3625 
Q 1773 3667 1626 3667 
Q 1446 3667 1312 3616 
Q 1178 3565 1088 3481 
Q 998 3398 953 3286 
Q 909 3174 909 3059 
z
M 1574 1882 
Q 1235 1773 1024 1584 
Q 813 1395 813 1056 
Q 813 787 1014 582 
Q 1216 378 1626 378 
Q 1811 378 1961 432 
Q 2112 486 2214 582 
Q 2317 678 2371 800 
Q 2426 922 2426 1056 
Q 2426 1216 2362 1347 
Q 2298 1478 2182 1577 
Q 2067 1677 1910 1753 
Q 1754 1830 1574 1882 
z
" transform="scale(0.015625)"/>
       </defs>
       <use xlink:href="#Mukta-Regular-38"/>
       <use xlink:href="#Mukta-Regular-4b" x="50.499985"/>
      </g>
     </g>
    </g>
    <g id="ytick_5">
     <g id="line2d_10">
      <g>
       <use xlink:href="#mec502a7453" x="77.952756" y="410.034571" style="stroke: #000000; stroke-width: 0.8"/>
      </g>
     </g>
     <g id="text_10">
      <!-- 10K -->
      <g transform="translate(45.197756 416.069571) scale(0.17 -0.17)">
       <use xlink:href="#Mukta-Regular-31"/>
       <use xlink:href="#Mukta-Regular-30" x="36.399994"/>
       <use xlink:href="#Mukta-Regular-4b" x="93.899979"/>
      </g>
     </g>
    </g>
    <g id="ytick_6">
     <g id="line2d_11">
      <g>
       <use xlink:href="#mec502a7453" x="77.952756" y="223.607324" style="stroke: #000000; stroke-width: 0.8"/>
      </g>
     </g>
     <g id="text_11">
      <!-- 20K -->
      <g transform="translate(43.17635 229.642324) scale(0.17 -0.17)">
       <use xlink:href="#Mukta-Regular-32"/>
       <use xlink:href="#Mukta-Regular-30" x="48.299988"/>
       <use xlink:href="#Mukta-Regular-4b" x="105.799973"/>
      </g>
     </g>
    </g>
    <g id="ytick_7">
     <g id="line2d_12">
      <g>
       <use xlink:href="#mec502a7453" x="77.952756" y="130.393701" style="stroke: #000000; stroke-width: 0.8"/>
      </g>
     </g>
     <g id="text_12">
      <!-- 25K -->
      <g transform="translate(44.161818 136.428701) scale(0.17 -0.17)">
       <defs>
        <path id="Mukta-Regular-35" d="M 2733 4045 
L 2733 3578 
L 1242 3565 
L 1120 2502 
Q 1197 2515 1293 2524 
Q 1389 2534 1498 2534 
Q 1734 2534 1980 2470 
Q 2227 2406 2425 2262 
Q 2624 2118 2752 1884 
Q 2880 1651 2880 1312 
Q 2880 1024 2777 774 
Q 2675 525 2473 339 
Q 2272 154 1974 48 
Q 1677 -58 1286 -58 
Q 1062 -58 825 -6 
Q 589 45 403 134 
L 531 589 
Q 685 512 877 461 
Q 1069 410 1274 410 
Q 1760 410 2025 630 
Q 2291 851 2291 1293 
Q 2291 1504 2217 1661 
Q 2144 1818 2013 1920 
Q 1882 2022 1702 2073 
Q 1523 2125 1312 2125 
Q 1139 2125 960 2102 
Q 781 2080 595 2042 
L 794 4032 
L 2733 4045 
z
" transform="scale(0.015625)"/>
       </defs>
       <use xlink:href="#Mukta-Regular-32"/>
       <use xlink:href="#Mukta-Regular-35" x="48.299988"/>
       <use xlink:href="#Mukta-Regular-4b" x="99.999985"/>
      </g>
     </g>
    </g>
   </g>
   <g id="line2d_13">
    <path d="M 99.92126 276.179808 
L 209.76378 233.674395 
L 319.606299 175.695522 
L 429.448819 172.899113 
L 539.291339 216.150234 
" clip-path="url(#pef010a0e82)" style="fill: none; stroke: #32a251; stroke-width: 2; stroke-linecap: square"/>
    <defs>
     <path id="mfc67ca209b" d="M 0 3 
C 0.795609 3 1.55874 2.683901 2.12132 2.12132 
C 2.683901 1.55874 3 0.795609 3 0 
C 3 -0.795609 2.683901 -1.55874 2.12132 -2.12132 
C 1.55874 -2.683901 0.795609 -3 0 -3 
C -0.795609 -3 -1.55874 -2.683901 -2.12132 -2.12132 
C -2.683901 -1.55874 -3 -0.795609 -3 0 
C -3 0.795609 -2.683901 1.55874 -2.12132 2.12132 
C -1.55874 2.683901 -0.795609 3 0 3 
z
" style="stroke: #32a251"/>
    </defs>
    <g clip-path="url(#pef010a0e82)">
     <use xlink:href="#mfc67ca209b" x="99.92126" y="276.179808" style="fill: #32a251; stroke: #32a251"/>
     <use xlink:href="#mfc67ca209b" x="209.76378" y="233.674395" style="fill: #32a251; stroke: #32a251"/>
     <use xlink:href="#mfc67ca209b" x="319.606299" y="175.695522" style="fill: #32a251; stroke: #32a251"/>
     <use xlink:href="#mfc67ca209b" x="429.448819" y="172.899113" style="fill: #32a251; stroke: #32a251"/>
     <use xlink:href="#mfc67ca209b" x="539.291339" y="216.150234" style="fill: #32a251; stroke: #32a251"/>
    </g>
   </g>
   <g id="line2d_14">
    <path d="M 99.92126 310.109567 
L 209.76378 339.751499 
L 319.606299 333.5994 
L 429.448819 320.922347 
" clip-path="url(#pef010a0e82)" style="fill: none; stroke: #acd98d; stroke-width: 2; stroke-linecap: square"/>
    <defs>
     <path id="me240a05af7" d="M 0 3 
C 0.795609 3 1.55874 2.683901 2.12132 2.12132 
C 2.683901 1.55874 3 0.795609 3 0 
C 3 -0.795609 2.683901 -1.55874 2.12132 -2.12132 
C 1.55874 -2.683901 0.795609 -3 0 -3 
C -0.795609 -3 -1.55874 -2.683901 -2.12132 -2.12132 
C -2.683901 -1.55874 -3 -0.795609 -3 0 
C -3 0.795609 -2.683901 1.55874 -2.12132 2.12132 
C -1.55874 2.683901 -0.795609 3 0 3 
z
" style="stroke: #acd98d"/>
    </defs>
    <g clip-path="url(#pef010a0e82)">
     <use xlink:href="#me240a05af7" x="99.92126" y="310.109567" style="fill: #acd98d; stroke: #acd98d"/>
     <use xlink:href="#me240a05af7" x="209.76378" y="339.751499" style="fill: #acd98d; stroke: #acd98d"/>
     <use xlink:href="#me240a05af7" x="319.606299" y="333.5994" style="fill: #acd98d; stroke: #acd98d"/>
     <use xlink:href="#me240a05af7" x="429.448819" y="320.922347" style="fill: #acd98d; stroke: #acd98d"/>
    </g>
   </g>
   <g id="line2d_15">
    <path d="M 99.92126 468.199872 
L 209.76378 456.454955 
L 319.606299 445.455748 
L 429.448819 432.965122 
" clip-path="url(#pef010a0e82)" style="fill: none; stroke: #ff7f0f; stroke-width: 2; stroke-linecap: square"/>
    <defs>
     <path id="mdf27a6c24d" d="M 0 3 
C 0.795609 3 1.55874 2.683901 2.12132 2.12132 
C 2.683901 1.55874 3 0.795609 3 0 
C 3 -0.795609 2.683901 -1.55874 2.12132 -2.12132 
C 1.55874 -2.683901 0.795609 -3 0 -3 
C -0.795609 -3 -1.55874 -2.683901 -2.12132 -2.12132 
C -2.683901 -1.55874 -3 -0.795609 -3 0 
C -3 0.795609 -2.683901 1.55874 -2.12132 2.12132 
C -1.55874 2.683901 -0.795609 3 0 3 
z
" style="stroke: #ff7f0f"/>
    </defs>
    <g clip-path="url(#pef010a0e82)">
     <use xlink:href="#mdf27a6c24d" x="99.92126" y="468.199872" style="fill: #ff7f0f; stroke: #ff7f0f"/>
     <use xlink:href="#mdf27a6c24d" x="209.76378" y="456.454955" style="fill: #ff7f0f; stroke: #ff7f0f"/>
     <use xlink:href="#mdf27a6c24d" x="319.606299" y="445.455748" style="fill: #ff7f0f; stroke: #ff7f0f"/>
     <use xlink:href="#mdf27a6c24d" x="429.448819" y="432.965122" style="fill: #ff7f0f; stroke: #ff7f0f"/>
    </g>
   </g>
   <g id="line2d_16">
    <path d="M 99.92126 473.233408 
L 209.76378 471.182708 
L 319.606299 455.149965 
L 429.448819 447.692875 
L 539.291339 437.998658 
" clip-path="url(#pef010a0e82)" style="fill: none; stroke: #ffb977; stroke-width: 2; stroke-linecap: square"/>
    <defs>
     <path id="m255f9d207f" d="M 0 3 
C 0.795609 3 1.55874 2.683901 2.12132 2.12132 
C 2.683901 1.55874 3 0.795609 3 0 
C 3 -0.795609 2.683901 -1.55874 2.12132 -2.12132 
C 1.55874 -2.683901 0.795609 -3 0 -3 
C -0.795609 -3 -1.55874 -2.683901 -2.12132 -2.12132 
C -2.683901 -1.55874 -3 -0.795609 -3 0 
C -3 0.795609 -2.683901 1.55874 -2.12132 2.12132 
C -1.55874 2.683901 -0.795609 3 0 3 
z
" style="stroke: #ffb977"/>
    </defs>
    <g clip-path="url(#pef010a0e82)">
     <use xlink:href="#m255f9d207f" x="99.92126" y="473.233408" style="fill: #ffb977; stroke: #ffb977"/>
     <use xlink:href="#m255f9d207f" x="209.76378" y="471.182708" style="fill: #ffb977; stroke: #ffb977"/>
     <use xlink:href="#m255f9d207f" x="319.606299" y="455.149965" style="fill: #ffb977; stroke: #ffb977"/>
     <use xlink:href="#m255f9d207f" x="429.448819" y="447.692875" style="fill: #ffb977; stroke: #ffb977"/>
     <use xlink:href="#m255f9d207f" x="539.291339" y="437.998658" style="fill: #ffb977; stroke: #ffb977"/>
    </g>
   </g>
   <g id="line2d_17">
    <path d="M 99.92126 499.333222 
L 209.76378 498.77394 
L 319.606299 495.977532 
L 429.448819 486.283315 
" clip-path="url(#pef010a0e82)" style="fill: none; stroke: #3cb7cc; stroke-width: 2; stroke-linecap: square"/>
    <defs>
     <path id="m56d908a615" d="M 0 3 
C 0.795609 3 1.55874 2.683901 2.12132 2.12132 
C 2.683901 1.55874 3 0.795609 3 0 
C 3 -0.795609 2.683901 -1.55874 2.12132 -2.12132 
C 1.55874 -2.683901 0.795609 -3 0 -3 
C -0.795609 -3 -1.55874 -2.683901 -2.12132 -2.12132 
C -2.683901 -1.55874 -3 -0.795609 -3 0 
C -3 0.795609 -2.683901 1.55874 -2.12132 2.12132 
C -1.55874 2.683901 -0.795609 3 0 3 
z
" style="stroke: #3cb7cc"/>
    </defs>
    <g clip-path="url(#pef010a0e82)">
     <use xlink:href="#m56d908a615" x="99.92126" y="499.333222" style="fill: #3cb7cc; stroke: #3cb7cc"/>
     <use xlink:href="#m56d908a615" x="209.76378" y="498.77394" style="fill: #3cb7cc; stroke: #3cb7cc"/>
     <use xlink:href="#m56d908a615" x="319.606299" y="495.977532" style="fill: #3cb7cc; stroke: #3cb7cc"/>
     <use xlink:href="#m56d908a615" x="429.448819" y="486.283315" style="fill: #3cb7cc; stroke: #3cb7cc"/>
    </g>
   </g>
   <g id="line2d_18">
    <path d="M 99.92126 511.450993 
L 209.76378 514.806684 
L 319.606299 498.587513 
L 429.448819 490.757569 
L 539.291339 487.96116 
" clip-path="url(#pef010a0e82)" style="fill: none; stroke: #98d9e4; stroke-width: 2; stroke-linecap: square"/>
    <defs>
     <path id="m57006df5f3" d="M 0 3 
C 0.795609 3 1.55874 2.683901 2.12132 2.12132 
C 2.683901 1.55874 3 0.795609 3 0 
C 3 -0.795609 2.683901 -1.55874 2.12132 -2.12132 
C 1.55874 -2.683901 0.795609 -3 0 -3 
C -0.795609 -3 -1.55874 -2.683901 -2.12132 -2.12132 
C -2.683901 -1.55874 -3 -0.795609 -3 0 
C -3 0.795609 -2.683901 1.55874 -2.12132 2.12132 
C -1.55874 2.683901 -0.795609 3 0 3 
z
" style="stroke: #98d9e4"/>
    </defs>
    <g clip-path="url(#pef010a0e82)">
     <use xlink:href="#m57006df5f3" x="99.92126" y="511.450993" style="fill: #98d9e4; stroke: #98d9e4"/>
     <use xlink:href="#m57006df5f3" x="209.76378" y="514.806684" style="fill: #98d9e4; stroke: #98d9e4"/>
     <use xlink:href="#m57006df5f3" x="319.606299" y="498.587513" style="fill: #98d9e4; stroke: #98d9e4"/>
     <use xlink:href="#m57006df5f3" x="429.448819" y="490.757569" style="fill: #98d9e4; stroke: #98d9e4"/>
     <use xlink:href="#m57006df5f3" x="539.291339" y="487.96116" style="fill: #98d9e4; stroke: #98d9e4"/>
    </g>
   </g>
   <g id="line2d_19">
    <path d="M 99.92126 520.399501 
L 209.76378 522.077346 
L 319.606299 519.467365 
L 429.448819 506.976739 
L 539.291339 502.502485 
" clip-path="url(#pef010a0e82)" style="fill: none; stroke: #b85a0d; stroke-width: 2; stroke-linecap: square"/>
    <defs>
     <path id="m81ca923827" d="M 0 3 
C 0.795609 3 1.55874 2.683901 2.12132 2.12132 
C 2.683901 1.55874 3 0.795609 3 0 
C 3 -0.795609 2.683901 -1.55874 2.12132 -2.12132 
C 1.55874 -2.683901 0.795609 -3 0 -3 
C -0.795609 -3 -1.55874 -2.683901 -2.12132 -2.12132 
C -2.683901 -1.55874 -3 -0.795609 -3 0 
C -3 0.795609 -2.683901 1.55874 -2.12132 2.12132 
C -1.55874 2.683901 -0.795609 3 0 3 
z
" style="stroke: #b85a0d"/>
    </defs>
    <g clip-path="url(#pef010a0e82)">
     <use xlink:href="#m81ca923827" x="99.92126" y="520.399501" style="fill: #b85a0d; stroke: #b85a0d"/>
     <use xlink:href="#m81ca923827" x="209.76378" y="522.077346" style="fill: #b85a0d; stroke: #b85a0d"/>
     <use xlink:href="#m81ca923827" x="319.606299" y="519.467365" style="fill: #b85a0d; stroke: #b85a0d"/>
     <use xlink:href="#m81ca923827" x="429.448819" y="506.976739" style="fill: #b85a0d; stroke: #b85a0d"/>
     <use xlink:href="#m81ca923827" x="539.291339" y="502.502485" style="fill: #b85a0d; stroke: #b85a0d"/>
    </g>
   </g>
   <g id="line2d_20">
    <path d="M 99.92126 533.262981 
L 209.76378 531.212281 
L 319.606299 525.060182 
L 429.448819 523.941619 
L 539.291339 523.941619 
" clip-path="url(#pef010a0e82)" style="fill: none; stroke: #ffd94a; stroke-width: 2; stroke-linecap: square"/>
    <defs>
     <path id="me0f4989afb" d="M 0 3 
C 0.795609 3 1.55874 2.683901 2.12132 2.12132 
C 2.683901 1.55874 3 0.795609 3 0 
C 3 -0.795609 2.683901 -1.55874 2.12132 -2.12132 
C 1.55874 -2.683901 0.795609 -3 0 -3 
C -0.795609 -3 -1.55874 -2.683901 -2.12132 -2.12132 
C -2.683901 -1.55874 -3 -0.795609 -3 0 
C -3 0.795609 -2.683901 1.55874 -2.12132 2.12132 
C -1.55874 2.683901 -0.795609 3 0 3 
z
" style="stroke: #ffd94a"/>
    </defs>
    <g clip-path="url(#pef010a0e82)">
     <use xlink:href="#me0f4989afb" x="99.92126" y="533.262981" style="fill: #ffd94a; stroke: #ffd94a"/>
     <use xlink:href="#me0f4989afb" x="209.76378" y="531.212281" style="fill: #ffd94a; stroke: #ffd94a"/>
     <use xlink:href="#me0f4989afb" x="319.606299" y="525.060182" style="fill: #ffd94a; stroke: #ffd94a"/>
     <use xlink:href="#me0f4989afb" x="429.448819" y="523.941619" style="fill: #ffd94a; stroke: #ffd94a"/>
     <use xlink:href="#me0f4989afb" x="539.291339" y="523.941619" style="fill: #ffd94a; stroke: #ffd94a"/>
    </g>
   </g>
   <g id="line2d_21">
    <path d="M 99.92126 539.228653 
L 209.76378 537.737235 
L 319.606299 529.161582 
L 429.448819 525.619464 
L 539.291339 528.229445 
" clip-path="url(#pef010a0e82)" style="fill: none; stroke: #39737c; stroke-width: 2; stroke-linecap: square"/>
    <defs>
     <path id="m939a956092" d="M 0 3 
C 0.795609 3 1.55874 2.683901 2.12132 2.12132 
C 2.683901 1.55874 3 0.795609 3 0 
C 3 -0.795609 2.683901 -1.55874 2.12132 -2.12132 
C 1.55874 -2.683901 0.795609 -3 0 -3 
C -0.795609 -3 -1.55874 -2.683901 -2.12132 -2.12132 
C -2.683901 -1.55874 -3 -0.795609 -3 0 
C -3 0.795609 -2.683901 1.55874 -2.12132 2.12132 
C -1.55874 2.683901 -0.795609 3 0 3 
z
" style="stroke: #39737c"/>
    </defs>
    <g clip-path="url(#pef010a0e82)">
     <use xlink:href="#m939a956092" x="99.92126" y="539.228653" style="fill: #39737c; stroke: #39737c"/>
     <use xlink:href="#m939a956092" x="209.76378" y="537.737235" style="fill: #39737c; stroke: #39737c"/>
     <use xlink:href="#m939a956092" x="319.606299" y="529.161582" style="fill: #39737c; stroke: #39737c"/>
     <use xlink:href="#m939a956092" x="429.448819" y="525.619464" style="fill: #39737c; stroke: #39737c"/>
     <use xlink:href="#m939a956092" x="539.291339" y="528.229445" style="fill: #39737c; stroke: #39737c"/>
    </g>
   </g>
   <g id="line2d_22">
    <path d="M 99.92126 551.532851 
L 209.76378 552.27856 
L 319.606299 546.312888 
L 429.448819 544.262189 
L 539.291339 542.397916 
" clip-path="url(#pef010a0e82)" style="fill: none; stroke: #86b4a9; stroke-width: 2; stroke-linecap: square"/>
    <defs>
     <path id="mbbc0af7b77" d="M 0 3 
C 0.795609 3 1.55874 2.683901 2.12132 2.12132 
C 2.683901 1.55874 3 0.795609 3 0 
C 3 -0.795609 2.683901 -1.55874 2.12132 -2.12132 
C 1.55874 -2.683901 0.795609 -3 0 -3 
C -0.795609 -3 -1.55874 -2.683901 -2.12132 -2.12132 
C -2.683901 -1.55874 -3 -0.795609 -3 0 
C -3 0.795609 -2.683901 1.55874 -2.12132 2.12132 
C -1.55874 2.683901 -0.795609 3 0 3 
z
" style="stroke: #86b4a9"/>
    </defs>
    <g clip-path="url(#pef010a0e82)">
     <use xlink:href="#mbbc0af7b77" x="99.92126" y="551.532851" style="fill: #86b4a9; stroke: #86b4a9"/>
     <use xlink:href="#mbbc0af7b77" x="209.76378" y="552.27856" style="fill: #86b4a9; stroke: #86b4a9"/>
     <use xlink:href="#mbbc0af7b77" x="319.606299" y="546.312888" style="fill: #86b4a9; stroke: #86b4a9"/>
     <use xlink:href="#mbbc0af7b77" x="429.448819" y="544.262189" style="fill: #86b4a9; stroke: #86b4a9"/>
     <use xlink:href="#mbbc0af7b77" x="539.291339" y="542.397916" style="fill: #86b4a9; stroke: #86b4a9"/>
    </g>
   </g>
   <g id="line2d_23">
    <path d="M 99.92126 556.007105 
L 209.76378 556.939241 
L 319.606299 558.989941 
L 429.448819 559.549223 
L 539.291339 560.854213 
" clip-path="url(#pef010a0e82)" style="fill: none; stroke: #82853b; stroke-width: 2; stroke-linecap: square"/>
    <defs>
     <path id="m894027b0c9" d="M 0 3 
C 0.795609 3 1.55874 2.683901 2.12132 2.12132 
C 2.683901 1.55874 3 0.795609 3 0 
C 3 -0.795609 2.683901 -1.55874 2.12132 -2.12132 
C 1.55874 -2.683901 0.795609 -3 0 -3 
C -0.795609 -3 -1.55874 -2.683901 -2.12132 -2.12132 
C -2.683901 -1.55874 -3 -0.795609 -3 0 
C -3 0.795609 -2.683901 1.55874 -2.12132 2.12132 
C -1.55874 2.683901 -0.795609 3 0 3 
z
" style="stroke: #82853b"/>
    </defs>
    <g clip-path="url(#pef010a0e82)">
     <use xlink:href="#m894027b0c9" x="99.92126" y="556.007105" style="fill: #82853b; stroke: #82853b"/>
     <use xlink:href="#m894027b0c9" x="209.76378" y="556.939241" style="fill: #82853b; stroke: #82853b"/>
     <use xlink:href="#m894027b0c9" x="319.606299" y="558.989941" style="fill: #82853b; stroke: #82853b"/>
     <use xlink:href="#m894027b0c9" x="429.448819" y="559.549223" style="fill: #82853b; stroke: #82853b"/>
     <use xlink:href="#m894027b0c9" x="539.291339" y="560.854213" style="fill: #82853b; stroke: #82853b"/>
    </g>
   </g>
   <g id="text_13">
    <!-- Nauru -->
    <g style="fill: #32a251" transform="translate(572.244094 220.711218) scale(0.2 -0.2)">
     <defs>
      <path id="Mukta-Bold-4e" d="M 442 4032 
L 1242 4032 
L 2630 1907 
Q 2771 1690 2889 1482 
Q 3008 1274 3059 1158 
L 3072 1158 
Q 3034 1574 3034 1987 
Q 3034 2400 3034 2822 
L 3034 4032 
L 3846 4032 
L 3846 0 
L 3046 0 
L 1754 1958 
Q 1670 2086 1590 2224 
Q 1510 2362 1440 2490 
Q 1370 2618 1315 2723 
Q 1261 2829 1235 2899 
L 1222 2899 
Q 1254 2458 1257 2051 
Q 1261 1645 1261 1222 
L 1261 0 
L 442 0 
L 442 4032 
z
" transform="scale(0.015625)"/>
      <path id="Mukta-Bold-61" d="M 435 2784 
Q 710 2944 1017 3030 
Q 1325 3117 1670 3117 
Q 1946 3117 2173 3053 
Q 2400 2989 2563 2851 
Q 2726 2714 2812 2499 
Q 2899 2285 2899 1984 
L 2899 0 
L 2240 0 
L 2163 314 
L 2138 314 
Q 1990 134 1763 32 
Q 1536 -70 1235 -70 
Q 986 -70 794 3 
Q 602 77 467 201 
Q 333 326 265 499 
Q 198 672 198 870 
Q 198 1133 310 1321 
Q 422 1510 620 1632 
Q 819 1754 1084 1811 
Q 1350 1869 1658 1869 
L 2042 1869 
L 2042 2054 
Q 2042 2266 1910 2365 
Q 1779 2464 1542 2464 
Q 1357 2464 1161 2406 
Q 966 2349 730 2221 
L 435 2784 
z
M 2048 1338 
L 1773 1331 
Q 1382 1318 1228 1200 
Q 1075 1082 1075 915 
Q 1075 698 1206 618 
Q 1338 538 1504 538 
Q 1670 538 1820 634 
Q 1971 730 2048 858 
L 2048 1338 
z
" transform="scale(0.015625)"/>
      <path id="Mukta-Bold-75" d="M 2355 3053 
L 3206 3053 
L 3206 0 
L 2573 0 
L 2483 346 
L 2458 346 
Q 2387 275 2294 201 
Q 2202 128 2077 67 
Q 1952 6 1795 -32 
Q 1638 -70 1446 -70 
Q 954 -70 669 205 
Q 384 480 384 1018 
L 384 3053 
L 1235 3053 
L 1235 1088 
Q 1235 813 1366 691 
Q 1498 570 1702 570 
Q 1933 570 2096 666 
Q 2259 762 2355 890 
L 2355 3053 
z
" transform="scale(0.015625)"/>
      <path id="Mukta-Bold-72" d="M 384 0 
L 384 3053 
L 1043 3053 
L 1139 2502 
Q 1248 2746 1485 2931 
Q 1722 3117 2080 3117 
Q 2227 3117 2342 3085 
Q 2458 3053 2534 3008 
L 2394 2336 
Q 2323 2374 2214 2403 
Q 2106 2432 1958 2432 
Q 1645 2432 1437 2224 
Q 1229 2016 1229 1542 
L 1229 0 
L 384 0 
z
" transform="scale(0.015625)"/>
     </defs>
     <use xlink:href="#Mukta-Bold-4e"/>
     <use xlink:href="#Mukta-Bold-61" x="66.999985"/>
     <use xlink:href="#Mukta-Bold-75" x="117.599976"/>
     <use xlink:href="#Mukta-Bold-72" x="173.699966"/>
     <use xlink:href="#Mukta-Bold-75" x="212.699951"/>
    </g>
   </g>
   <g id="text_14">
    <!-- Palau -->
    <g style="fill: #acd98d" transform="translate(572.244094 325.483331) scale(0.2 -0.2)">
     <defs>
      <path id="Mukta-Bold-50" d="M 442 4032 
L 1856 4032 
Q 2208 4032 2493 3949 
Q 2778 3866 2979 3706 
Q 3181 3546 3289 3318 
Q 3398 3091 3398 2797 
Q 3398 2451 3270 2201 
Q 3142 1952 2921 1789 
Q 2701 1626 2406 1546 
Q 2112 1466 1779 1466 
L 1318 1466 
L 1318 0 
L 442 0 
L 442 4032 
z
M 1318 2138 
L 1677 2138 
Q 1843 2138 1993 2166 
Q 2144 2195 2256 2268 
Q 2368 2342 2432 2460 
Q 2496 2579 2496 2758 
Q 2496 3072 2285 3219 
Q 2074 3366 1747 3366 
L 1318 3366 
L 1318 2138 
z
" transform="scale(0.015625)"/>
      <path id="Mukta-Bold-6c" d="M 410 0 
L 410 4570 
L 1248 4570 
L 1248 0 
L 410 0 
z
" transform="scale(0.015625)"/>
     </defs>
     <use xlink:href="#Mukta-Bold-50"/>
     <use xlink:href="#Mukta-Bold-61" x="55.999985"/>
     <use xlink:href="#Mukta-Bold-6c" x="106.599976"/>
     <use xlink:href="#Mukta-Bold-61" x="132.499969"/>
     <use xlink:href="#Mukta-Bold-75" x="183.09996"/>
    </g>
   </g>
   <g id="text_15">
    <!-- Tuvalu -->
    <g style="fill: #ff7f0f" transform="translate(572.244094 425.687976) scale(0.2 -0.2)">
     <defs>
      <path id="Mukta-Bold-54" d="M 3194 4032 
L 3194 3341 
L 2054 3341 
L 2054 0 
L 1178 0 
L 1178 3341 
L 64 3341 
L 64 4032 
L 3194 4032 
z
" transform="scale(0.015625)"/>
      <path id="Mukta-Bold-76" d="M 2278 3053 
L 3181 3053 
L 2099 0 
L 1114 0 
L 64 3053 
L 973 3053 
L 1421 1530 
L 1606 608 
L 1632 608 
L 1818 1530 
L 2278 3053 
z
" transform="scale(0.015625)"/>
     </defs>
     <use xlink:href="#Mukta-Bold-54"/>
     <use xlink:href="#Mukta-Bold-75" x="50.799988"/>
     <use xlink:href="#Mukta-Bold-76" x="106.899979"/>
     <use xlink:href="#Mukta-Bold-61" x="157.499969"/>
     <use xlink:href="#Mukta-Bold-6c" x="208.09996"/>
     <use xlink:href="#Mukta-Bold-75" x="233.999954"/>
    </g>
   </g>
   <g id="text_16">
    <!-- Marshall Islands -->
    <g style="fill: #ffb977" transform="translate(572.244094 451.228509) scale(0.2 -0.2)">
     <defs>
      <path id="Mukta-Bold-4d" d="M 698 4032 
L 1805 4032 
L 2381 2195 
Q 2419 2074 2460 1933 
Q 2502 1792 2540 1651 
Q 2579 1510 2611 1376 
Q 2643 1242 2662 1126 
L 2688 1126 
Q 2707 1229 2739 1366 
Q 2771 1504 2809 1651 
Q 2848 1798 2886 1939 
Q 2925 2080 2957 2195 
L 3514 4032 
L 4621 4032 
L 4922 0 
L 4096 0 
Q 4058 666 4019 1331 
Q 3981 1997 3968 2675 
L 3962 3200 
L 3942 3200 
Q 3859 2848 3760 2464 
Q 3661 2080 3571 1792 
L 3002 0 
L 2323 0 
L 1741 1798 
Q 1632 2144 1536 2528 
Q 1440 2912 1382 3200 
L 1363 3200 
Q 1363 2970 1356 2717 
Q 1350 2464 1340 2214 
Q 1331 1965 1321 1725 
Q 1312 1485 1299 1286 
L 1222 0 
L 410 0 
L 698 4032 
z
" transform="scale(0.015625)"/>
      <path id="Mukta-Bold-73" d="M 2227 2323 
Q 1850 2502 1498 2502 
Q 1293 2502 1181 2432 
Q 1069 2362 1069 2240 
Q 1069 2118 1168 2041 
Q 1267 1965 1568 1875 
L 1760 1818 
Q 2157 1702 2361 1484 
Q 2566 1267 2566 922 
Q 2566 467 2217 198 
Q 1869 -70 1274 -70 
Q 666 -70 230 147 
L 422 774 
Q 608 678 813 617 
Q 1018 557 1229 557 
Q 1485 557 1603 637 
Q 1722 717 1722 845 
Q 1722 979 1606 1052 
Q 1491 1126 1171 1216 
L 973 1274 
Q 589 1402 409 1613 
Q 230 1824 230 2176 
Q 230 2592 544 2854 
Q 858 3117 1421 3117 
Q 1978 3117 2406 2918 
L 2227 2323 
z
" transform="scale(0.015625)"/>
      <path id="Mukta-Bold-68" d="M 1248 0 
L 397 0 
L 397 4570 
L 1248 4570 
L 1248 2778 
Q 1434 2925 1674 3021 
Q 1914 3117 2195 3117 
Q 2464 3117 2665 3037 
Q 2867 2957 2998 2813 
Q 3130 2669 3194 2467 
Q 3258 2266 3258 2029 
L 3258 0 
L 2406 0 
L 2406 1882 
Q 2406 2195 2278 2329 
Q 2150 2464 1907 2464 
Q 1741 2464 1565 2384 
Q 1389 2304 1248 2170 
L 1248 0 
z
" transform="scale(0.015625)"/>
      <path id="Mukta-Bold-20" transform="scale(0.015625)"/>
      <path id="Mukta-Bold-49" d="M 1318 4032 
L 1318 0 
L 442 0 
L 442 4032 
L 1318 4032 
z
" transform="scale(0.015625)"/>
      <path id="Mukta-Bold-6e" d="M 1235 0 
L 384 0 
L 384 3053 
L 1050 3053 
L 1152 2662 
Q 1363 2880 1616 2998 
Q 1869 3117 2176 3117 
Q 2682 3117 2950 2841 
Q 3219 2566 3219 2042 
L 3219 0 
L 2368 0 
L 2368 1952 
Q 2368 2189 2253 2326 
Q 2138 2464 1914 2464 
Q 1747 2464 1564 2371 
Q 1382 2278 1235 2118 
L 1235 0 
z
" transform="scale(0.015625)"/>
      <path id="Mukta-Bold-64" d="M 2355 4570 
L 3206 4570 
L 3206 0 
L 2598 0 
L 2509 333 
L 2477 333 
Q 2362 173 2147 51 
Q 1933 -70 1587 -70 
Q 1299 -70 1049 38 
Q 800 147 614 352 
Q 429 557 323 851 
Q 218 1146 218 1523 
Q 218 1888 314 2182 
Q 410 2477 589 2685 
Q 768 2893 1030 3005 
Q 1293 3117 1632 3117 
Q 1850 3117 2045 3053 
Q 2240 2989 2355 2886 
L 2355 4570 
z
M 2355 2253 
Q 2272 2355 2137 2425 
Q 2003 2496 1843 2496 
Q 1690 2496 1552 2445 
Q 1414 2394 1308 2282 
Q 1203 2170 1139 1987 
Q 1075 1805 1075 1542 
Q 1075 1286 1132 1100 
Q 1190 915 1286 793 
Q 1382 672 1513 614 
Q 1645 557 1792 557 
Q 1997 557 2141 656 
Q 2285 755 2355 890 
L 2355 2253 
z
" transform="scale(0.015625)"/>
     </defs>
     <use xlink:href="#Mukta-Bold-4d"/>
     <use xlink:href="#Mukta-Bold-61" x="83.299988"/>
     <use xlink:href="#Mukta-Bold-72" x="133.899979"/>
     <use xlink:href="#Mukta-Bold-73" x="172.899963"/>
     <use xlink:href="#Mukta-Bold-68" x="216.399948"/>
     <use xlink:href="#Mukta-Bold-61" x="273.499939"/>
     <use xlink:href="#Mukta-Bold-6c" x="324.09993"/>
     <use xlink:href="#Mukta-Bold-6c" x="349.999924"/>
     <use xlink:href="#Mukta-Bold-20" x="375.899918"/>
     <use xlink:href="#Mukta-Bold-49" x="398.899902"/>
     <use xlink:href="#Mukta-Bold-73" x="426.499893"/>
     <use xlink:href="#Mukta-Bold-6c" x="469.999878"/>
     <use xlink:href="#Mukta-Bold-61" x="495.899872"/>
     <use xlink:href="#Mukta-Bold-6e" x="546.499863"/>
     <use xlink:href="#Mukta-Bold-64" x="602.899857"/>
     <use xlink:href="#Mukta-Bold-73" x="659.199844"/>
    </g>
   </g>
   <g id="text_17">
    <!-- Tonga -->
    <g style="fill: #3cb7cc" transform="translate(572.244094 476.982521) scale(0.2 -0.2)">
     <defs>
      <path id="Mukta-Bold-6f" d="M 3354 1549 
Q 3354 1171 3232 870 
Q 3110 570 2896 362 
Q 2682 154 2394 42 
Q 2106 -70 1773 -70 
Q 1440 -70 1155 32 
Q 870 134 662 332 
Q 454 531 336 822 
Q 218 1114 218 1485 
Q 218 1875 339 2179 
Q 461 2483 675 2691 
Q 890 2899 1178 3008 
Q 1466 3117 1798 3117 
Q 2131 3117 2416 3014 
Q 2701 2912 2909 2717 
Q 3117 2522 3235 2227 
Q 3354 1933 3354 1549 
z
M 2477 1517 
Q 2477 1779 2419 1964 
Q 2362 2150 2266 2265 
Q 2170 2381 2042 2435 
Q 1914 2490 1779 2490 
Q 1645 2490 1523 2442 
Q 1402 2394 1306 2282 
Q 1210 2170 1152 1984 
Q 1094 1798 1094 1517 
Q 1094 1267 1152 1084 
Q 1210 902 1309 787 
Q 1408 672 1533 614 
Q 1658 557 1792 557 
Q 1926 557 2048 605 
Q 2170 653 2266 768 
Q 2362 883 2419 1065 
Q 2477 1248 2477 1517 
z
" transform="scale(0.015625)"/>
      <path id="Mukta-Bold-67" d="M 352 2016 
Q 352 2266 451 2470 
Q 550 2675 726 2819 
Q 902 2963 1142 3040 
Q 1382 3117 1670 3117 
Q 1779 3117 1907 3101 
Q 2035 3085 2144 3053 
L 3450 3053 
L 3450 2515 
L 3174 2515 
L 2778 2573 
Q 2861 2470 2915 2316 
Q 2970 2163 2970 2010 
Q 2970 1523 2621 1225 
Q 2272 928 1664 928 
Q 1504 928 1382 954 
Q 1222 890 1222 742 
Q 1222 640 1292 589 
Q 1363 538 1542 538 
L 2227 538 
Q 2733 538 3037 317 
Q 3341 96 3341 -390 
Q 3341 -640 3222 -848 
Q 3104 -1056 2886 -1206 
Q 2669 -1357 2361 -1440 
Q 2054 -1523 1677 -1523 
Q 979 -1523 572 -1276 
Q 166 -1030 166 -570 
Q 166 -358 307 -201 
Q 448 -45 698 45 
Q 608 109 518 227 
Q 429 346 429 525 
Q 429 736 557 889 
Q 685 1043 883 1133 
Q 787 1184 694 1264 
Q 602 1344 525 1453 
Q 448 1562 400 1702 
Q 352 1843 352 2016 
z
M 1171 -102 
Q 1075 -154 1011 -237 
Q 947 -320 947 -448 
Q 947 -634 1116 -758 
Q 1286 -883 1702 -883 
Q 2118 -883 2310 -742 
Q 2502 -602 2502 -422 
Q 2502 -243 2380 -172 
Q 2259 -102 2003 -102 
L 1171 -102 
z
M 2138 2022 
Q 2138 2272 2003 2400 
Q 1869 2528 1664 2528 
Q 1453 2528 1321 2400 
Q 1190 2272 1190 2029 
Q 1190 1773 1324 1645 
Q 1459 1517 1664 1517 
Q 1875 1517 2006 1645 
Q 2138 1773 2138 2022 
z
" transform="scale(0.015625)"/>
     </defs>
     <use xlink:href="#Mukta-Bold-54"/>
     <use xlink:href="#Mukta-Bold-6f" x="50.799988"/>
     <use xlink:href="#Mukta-Bold-6e" x="106.699982"/>
     <use xlink:href="#Mukta-Bold-67" x="163.099976"/>
     <use xlink:href="#Mukta-Bold-61" x="219.799973"/>
    </g>
   </g>
   <g id="text_18">
    <!-- Fiji -->
    <g style="fill: #98d9e4" transform="translate(572.244094 492.747587) scale(0.2 -0.2)">
     <defs>
      <path id="Mukta-Bold-46" d="M 3002 4032 
L 3002 3354 
L 1318 3354 
L 1318 2285 
L 2861 2285 
L 2861 1613 
L 1318 1613 
L 1318 0 
L 442 0 
L 442 4032 
L 3002 4032 
z
" transform="scale(0.015625)"/>
      <path id="Mukta-Bold-69" d="M 454 0 
L 454 3053 
L 1306 3053 
L 1306 0 
L 454 0 
z
M 883 3706 
Q 666 3706 544 3830 
Q 422 3955 422 4141 
Q 422 4326 544 4451 
Q 666 4576 883 4576 
Q 1094 4576 1219 4451 
Q 1344 4326 1344 4141 
Q 1344 3955 1222 3830 
Q 1101 3706 883 3706 
z
" transform="scale(0.015625)"/>
      <path id="Mukta-Bold-6a" d="M 422 3053 
L 1274 3053 
L 1274 429 
Q 1274 70 1219 -243 
Q 1165 -557 1027 -816 
Q 890 -1075 659 -1280 
Q 429 -1485 77 -1632 
L -288 -1050 
Q -102 -954 32 -851 
Q 166 -749 252 -592 
Q 339 -435 380 -201 
Q 422 32 422 384 
L 422 3053 
z
M 858 3706 
Q 634 3706 515 3830 
Q 397 3955 397 4141 
Q 397 4326 518 4451 
Q 640 4576 858 4576 
Q 1069 4576 1190 4451 
Q 1312 4326 1312 4141 
Q 1312 3955 1190 3830 
Q 1069 3706 858 3706 
z
" transform="scale(0.015625)"/>
     </defs>
     <use xlink:href="#Mukta-Bold-46"/>
     <use xlink:href="#Mukta-Bold-69" x="49.699997"/>
     <use xlink:href="#Mukta-Bold-6a" x="77.299988"/>
     <use xlink:href="#Mukta-Bold-69" x="104.399979"/>
    </g>
   </g>
   <g id="text_19">
    <!-- Samoa -->
    <g style="fill: #b85a0d" transform="translate(572.244094 507.063469) scale(0.2 -0.2)">
     <defs>
      <path id="Mukta-Bold-53" d="M 1747 4102 
Q 2138 4102 2438 4025 
Q 2739 3949 2976 3827 
L 2778 3174 
Q 2515 3302 2272 3369 
Q 2029 3437 1798 3437 
Q 1491 3437 1321 3315 
Q 1152 3194 1152 2989 
Q 1152 2778 1299 2669 
Q 1446 2560 1773 2458 
L 2157 2336 
Q 2637 2176 2909 1881 
Q 3181 1587 3181 1158 
Q 3181 902 3085 678 
Q 2989 454 2797 288 
Q 2605 122 2317 26 
Q 2029 -70 1645 -70 
Q 922 -70 320 224 
L 518 877 
Q 794 742 1056 668 
Q 1318 595 1606 595 
Q 1946 595 2118 720 
Q 2291 845 2291 1069 
Q 2291 1146 2262 1219 
Q 2234 1293 2157 1360 
Q 2080 1427 1949 1494 
Q 1818 1562 1606 1626 
L 1267 1741 
Q 1043 1818 857 1920 
Q 672 2022 541 2156 
Q 410 2291 336 2473 
Q 262 2656 262 2899 
Q 262 3162 358 3382 
Q 454 3603 643 3763 
Q 832 3923 1110 4012 
Q 1389 4102 1747 4102 
z
" transform="scale(0.015625)"/>
      <path id="Mukta-Bold-6d" d="M 1235 0 
L 384 0 
L 384 3053 
L 1050 3053 
L 1152 2662 
Q 1357 2874 1600 2995 
Q 1843 3117 2150 3117 
Q 2803 3117 3040 2643 
Q 3245 2867 3507 2992 
Q 3770 3117 4070 3117 
Q 4557 3117 4816 2854 
Q 5075 2592 5075 2093 
L 5075 0 
L 4224 0 
L 4224 1997 
Q 4224 2214 4118 2339 
Q 4013 2464 3808 2464 
Q 3635 2464 3459 2381 
Q 3283 2298 3155 2144 
L 3155 0 
L 2304 0 
L 2304 1997 
Q 2304 2214 2198 2339 
Q 2093 2464 1888 2464 
Q 1715 2464 1539 2371 
Q 1363 2278 1235 2118 
L 1235 0 
z
" transform="scale(0.015625)"/>
     </defs>
     <use xlink:href="#Mukta-Bold-53"/>
     <use xlink:href="#Mukta-Bold-61" x="53.599991"/>
     <use xlink:href="#Mukta-Bold-6d" x="104.199982"/>
     <use xlink:href="#Mukta-Bold-6f" x="189.599976"/>
     <use xlink:href="#Mukta-Bold-61" x="245.499969"/>
    </g>
   </g>
   <g id="text_20">
    <!-- Vanuatu -->
    <g style="fill: #ffd94a" transform="translate(572.244094 519.460881) scale(0.2 -0.2)">
     <defs>
      <path id="Mukta-Bold-56" d="M 966 4032 
L 1638 1971 
Q 1670 1869 1715 1725 
Q 1760 1581 1805 1427 
Q 1850 1274 1891 1120 
Q 1933 966 1958 845 
L 1978 845 
Q 2029 1088 2128 1405 
Q 2227 1722 2310 1978 
L 2989 4032 
L 3891 4032 
L 2451 0 
L 1498 0 
L 38 4032 
L 966 4032 
z
" transform="scale(0.015625)"/>
      <path id="Mukta-Bold-74" d="M 2208 2438 
L 1395 2438 
L 1395 1030 
Q 1395 813 1494 733 
Q 1594 653 1760 653 
Q 1888 653 2022 678 
Q 2157 704 2240 749 
L 2368 154 
Q 2259 102 2041 51 
Q 1824 0 1581 0 
Q 1024 0 787 221 
Q 550 442 550 883 
L 550 2438 
L 77 2438 
L 77 3053 
L 550 3053 
L 550 3994 
L 1395 3994 
L 1395 3053 
L 2208 3053 
L 2208 2438 
z
" transform="scale(0.015625)"/>
     </defs>
     <use xlink:href="#Mukta-Bold-56"/>
     <use xlink:href="#Mukta-Bold-61" x="61.299988"/>
     <use xlink:href="#Mukta-Bold-6e" x="111.899979"/>
     <use xlink:href="#Mukta-Bold-75" x="168.299973"/>
     <use xlink:href="#Mukta-Bold-61" x="224.399963"/>
     <use xlink:href="#Mukta-Bold-74" x="274.999954"/>
     <use xlink:href="#Mukta-Bold-75" x="313.199951"/>
    </g>
   </g>
   <g id="text_21">
    <!-- Kiribati -->
    <g style="fill: #39737c" transform="translate(572.244094 532.790429) scale(0.2 -0.2)">
     <defs>
      <path id="Mukta-Bold-4b" d="M 442 0 
L 442 4032 
L 1318 4032 
L 1318 2336 
L 2707 4032 
L 3795 4032 
L 2291 2272 
L 3923 0 
L 2842 0 
L 1651 1722 
L 1318 1370 
L 1318 0 
L 442 0 
z
" transform="scale(0.015625)"/>
      <path id="Mukta-Bold-62" d="M 3411 1517 
Q 3411 1152 3302 857 
Q 3194 563 3002 355 
Q 2810 147 2547 38 
Q 2285 -70 1978 -70 
Q 1677 -70 1465 22 
Q 1254 115 1094 282 
L 1069 282 
L 1011 0 
L 397 0 
L 397 4570 
L 1242 4570 
L 1242 2803 
Q 1402 2950 1616 3033 
Q 1830 3117 2074 3117 
Q 2701 3117 3056 2694 
Q 3411 2272 3411 1517 
z
M 2534 1498 
Q 2534 1971 2348 2217 
Q 2163 2464 1824 2464 
Q 1645 2464 1491 2377 
Q 1338 2291 1248 2182 
L 1248 781 
Q 1331 685 1462 621 
Q 1594 557 1741 557 
Q 1894 557 2038 614 
Q 2182 672 2294 787 
Q 2406 902 2470 1078 
Q 2534 1254 2534 1498 
z
" transform="scale(0.015625)"/>
     </defs>
     <use xlink:href="#Mukta-Bold-4b"/>
     <use xlink:href="#Mukta-Bold-69" x="61.199997"/>
     <use xlink:href="#Mukta-Bold-72" x="88.799988"/>
     <use xlink:href="#Mukta-Bold-69" x="127.799973"/>
     <use xlink:href="#Mukta-Bold-62" x="155.399963"/>
     <use xlink:href="#Mukta-Bold-61" x="212.199951"/>
     <use xlink:href="#Mukta-Bold-74" x="262.799942"/>
     <use xlink:href="#Mukta-Bold-69" x="300.999939"/>
    </g>
   </g>
   <g id="text_22">
    <!-- Papua New Guinea -->
    <g style="fill: #86b4a9" transform="translate(572.244094 546.968275) scale(0.2 -0.2)">
     <defs>
      <path id="Mukta-Bold-70" d="M 1824 -70 
Q 1658 -70 1494 -28 
Q 1331 13 1222 77 
L 1222 -1472 
L 378 -1472 
L 378 3066 
L 1024 3066 
L 1114 2726 
Q 1299 2906 1536 3011 
Q 1773 3117 2067 3117 
Q 2669 3117 3017 2710 
Q 3366 2304 3366 1587 
Q 3366 1184 3244 873 
Q 3123 563 2912 352 
Q 2701 141 2419 35 
Q 2138 -70 1824 -70 
z
M 1837 2477 
Q 1626 2477 1466 2377 
Q 1306 2278 1222 2176 
L 1222 717 
Q 1421 557 1715 557 
Q 1856 557 1993 611 
Q 2131 666 2243 784 
Q 2355 902 2422 1094 
Q 2490 1286 2490 1562 
Q 2490 1760 2448 1926 
Q 2406 2093 2323 2214 
Q 2240 2336 2118 2406 
Q 1997 2477 1837 2477 
z
" transform="scale(0.015625)"/>
      <path id="Mukta-Bold-65" d="M 3104 1306 
L 1075 1306 
L 1075 1280 
Q 1075 915 1331 736 
Q 1587 557 1990 557 
Q 2246 557 2441 608 
Q 2637 659 2797 730 
L 2950 134 
Q 2778 51 2515 -9 
Q 2253 -70 1894 -70 
Q 1549 -70 1245 22 
Q 941 115 713 307 
Q 486 499 352 793 
Q 218 1088 218 1498 
Q 218 1862 326 2160 
Q 435 2458 636 2669 
Q 838 2880 1120 2998 
Q 1402 3117 1747 3117 
Q 2368 3117 2736 2739 
Q 3104 2362 3104 1683 
L 3104 1306 
z
M 2234 1888 
Q 2234 2010 2205 2125 
Q 2176 2240 2112 2326 
Q 2048 2413 1952 2464 
Q 1856 2515 1715 2515 
Q 1459 2515 1292 2342 
Q 1126 2170 1094 1875 
L 2234 1888 
z
" transform="scale(0.015625)"/>
      <path id="Mukta-Bold-77" d="M 58 3053 
L 947 3053 
L 1338 1434 
L 1453 634 
L 1478 634 
L 1613 1434 
L 1990 3053 
L 2886 3053 
L 3270 1434 
L 3405 634 
L 3430 634 
L 3565 1434 
L 3942 3053 
L 4806 3053 
L 3962 0 
L 2970 0 
L 2573 1651 
L 2438 2387 
L 2298 1651 
L 1901 0 
L 909 0 
L 58 3053 
z
" transform="scale(0.015625)"/>
      <path id="Mukta-Bold-47" d="M 2374 4102 
Q 2752 4102 3046 4038 
Q 3341 3974 3578 3866 
L 3392 3270 
Q 3168 3379 2931 3430 
Q 2694 3482 2464 3482 
Q 2202 3482 1968 3398 
Q 1734 3315 1561 3136 
Q 1389 2957 1286 2678 
Q 1184 2400 1184 2010 
Q 1184 1312 1494 937 
Q 1805 563 2381 563 
Q 2714 563 2880 627 
L 2880 1568 
L 2214 1568 
L 2214 2221 
L 3718 2221 
L 3718 179 
Q 3469 70 3136 0 
Q 2803 -70 2374 -70 
Q 1926 -70 1539 64 
Q 1152 198 867 464 
Q 582 730 419 1117 
Q 256 1504 256 2010 
Q 256 2515 419 2908 
Q 582 3302 864 3564 
Q 1146 3827 1533 3964 
Q 1920 4102 2374 4102 
z
" transform="scale(0.015625)"/>
     </defs>
     <use xlink:href="#Mukta-Bold-50"/>
     <use xlink:href="#Mukta-Bold-61" x="55.999985"/>
     <use xlink:href="#Mukta-Bold-70" x="106.599976"/>
     <use xlink:href="#Mukta-Bold-75" x="162.59996"/>
     <use xlink:href="#Mukta-Bold-61" x="218.699951"/>
     <use xlink:href="#Mukta-Bold-20" x="269.299942"/>
     <use xlink:href="#Mukta-Bold-4e" x="292.299927"/>
     <use xlink:href="#Mukta-Bold-65" x="359.299911"/>
     <use xlink:href="#Mukta-Bold-77" x="411.199905"/>
     <use xlink:href="#Mukta-Bold-20" x="487.099899"/>
     <use xlink:href="#Mukta-Bold-47" x="510.099884"/>
     <use xlink:href="#Mukta-Bold-75" x="573.199875"/>
     <use xlink:href="#Mukta-Bold-69" x="629.299866"/>
     <use xlink:href="#Mukta-Bold-6e" x="656.899857"/>
     <use xlink:href="#Mukta-Bold-65" x="713.29985"/>
     <use xlink:href="#Mukta-Bold-61" x="765.199844"/>
    </g>
   </g>
   <g id="text_23">
    <!-- Solomon Islands -->
    <g style="fill: #82853b" transform="translate(572.244094 565.415198) scale(0.2 -0.2)">
     <use xlink:href="#Mukta-Bold-53"/>
     <use xlink:href="#Mukta-Bold-6f" x="53.599991"/>
     <use xlink:href="#Mukta-Bold-6c" x="109.499985"/>
     <use xlink:href="#Mukta-Bold-6f" x="135.399979"/>
     <use xlink:href="#Mukta-Bold-6d" x="191.299973"/>
     <use xlink:href="#Mukta-Bold-6f" x="276.699966"/>
     <use xlink:href="#Mukta-Bold-6e" x="332.59996"/>
     <use xlink:href="#Mukta-Bold-20" x="388.999954"/>
     <use xlink:href="#Mukta-Bold-49" x="411.999939"/>
     <use xlink:href="#Mukta-Bold-73" x="439.59993"/>
     <use xlink:href="#Mukta-Bold-6c" x="483.099915"/>
     <use xlink:href="#Mukta-Bold-61" x="508.999908"/>
     <use xlink:href="#Mukta-Bold-6e" x="559.599899"/>
     <use xlink:href="#Mukta-Bold-64" x="615.999893"/>
     <use xlink:href="#Mukta-Bold-73" x="672.299881"/>
    </g>
   </g>
   <g id="text_24">
    <!-- USD -->
    <g transform="translate(47.573225 117.162338) scale(0.17 -0.17)">
     <defs>
      <path id="Mukta-Regular-55" d="M 461 4032 
L 1050 4032 
L 1050 1619 
Q 1050 973 1286 697 
Q 1523 422 2048 422 
Q 2566 422 2806 729 
Q 3046 1037 3046 1542 
L 3046 4032 
L 3635 4032 
L 3635 1562 
Q 3635 736 3212 339 
Q 2790 -58 2048 -58 
Q 1299 -58 880 336 
Q 461 730 461 1594 
L 461 4032 
z
" transform="scale(0.015625)"/>
      <path id="Mukta-Regular-53" d="M 1645 4090 
Q 1939 4090 2214 4042 
Q 2490 3994 2758 3866 
L 2618 3379 
Q 2342 3507 2121 3561 
Q 1901 3616 1670 3616 
Q 1306 3616 1094 3456 
Q 883 3296 883 3008 
Q 883 2765 1040 2617 
Q 1197 2470 1555 2362 
L 1958 2234 
Q 2509 2061 2736 1763 
Q 2963 1466 2963 1094 
Q 2963 832 2857 617 
Q 2752 403 2563 252 
Q 2374 102 2118 22 
Q 1862 -58 1555 -58 
Q 1248 -58 931 -3 
Q 614 51 301 198 
L 442 678 
Q 717 544 979 480 
Q 1242 416 1530 416 
Q 1875 416 2118 576 
Q 2362 736 2362 1050 
Q 2362 1165 2326 1264 
Q 2291 1363 2204 1452 
Q 2118 1542 1971 1619 
Q 1824 1696 1600 1766 
L 1197 1894 
Q 755 2035 518 2278 
Q 282 2522 282 2938 
Q 282 3469 630 3779 
Q 979 4090 1645 4090 
z
" transform="scale(0.015625)"/>
      <path id="Mukta-Regular-44" d="M 1824 4032 
Q 2253 4032 2617 3910 
Q 2982 3789 3248 3549 
Q 3514 3309 3664 2947 
Q 3814 2586 3814 2106 
Q 3814 1523 3635 1120 
Q 3456 717 3152 467 
Q 2848 218 2448 109 
Q 2048 0 1600 0 
L 512 0 
L 512 4032 
L 1824 4032 
z
M 1101 486 
L 1542 486 
Q 1850 486 2144 553 
Q 2438 621 2665 803 
Q 2893 986 3033 1299 
Q 3174 1613 3174 2106 
Q 3174 2451 3072 2720 
Q 2970 2989 2778 3171 
Q 2586 3354 2314 3450 
Q 2042 3546 1709 3546 
L 1101 3546 
L 1101 486 
z
" transform="scale(0.015625)"/>
     </defs>
     <use xlink:href="#Mukta-Regular-55"/>
     <use xlink:href="#Mukta-Regular-53" x="63.999985"/>
     <use xlink:href="#Mukta-Regular-44" x="114.499969"/>
    </g>
   </g>
   <g id="text_25">
    <!-- Economic Divergence Across the Pacific -->
    <g transform="translate(77.952756 60.483483) scale(0.25 -0.25)">
     <defs>
      <path id="Mukta-Bold-45" d="M 442 4032 
L 3066 4032 
L 3066 3354 
L 1318 3354 
L 1318 2432 
L 2899 2432 
L 2899 1760 
L 1318 1760 
L 1318 678 
L 3085 678 
L 3085 0 
L 442 0 
L 442 4032 
z
" transform="scale(0.015625)"/>
      <path id="Mukta-Bold-63" d="M 1984 557 
Q 2189 557 2345 611 
Q 2502 666 2605 717 
L 2765 128 
Q 2637 58 2393 -6 
Q 2150 -70 1862 -70 
Q 1517 -70 1216 32 
Q 915 134 694 336 
Q 474 538 346 832 
Q 218 1126 218 1517 
Q 218 1875 339 2169 
Q 461 2464 678 2675 
Q 896 2886 1203 3001 
Q 1510 3117 1875 3117 
Q 2074 3117 2294 3078 
Q 2515 3040 2758 2912 
L 2579 2323 
Q 2445 2400 2288 2448 
Q 2131 2496 1971 2496 
Q 1574 2496 1328 2253 
Q 1082 2010 1082 1542 
Q 1082 1267 1162 1078 
Q 1242 890 1370 774 
Q 1498 659 1658 608 
Q 1818 557 1984 557 
z
" transform="scale(0.015625)"/>
      <path id="Mukta-Bold-44" d="M 1850 4032 
Q 2317 4032 2701 3910 
Q 3085 3789 3360 3545 
Q 3635 3302 3785 2940 
Q 3936 2579 3936 2099 
Q 3936 1549 3757 1155 
Q 3578 762 3270 502 
Q 2963 243 2550 121 
Q 2138 0 1677 0 
L 442 0 
L 442 4032 
L 1850 4032 
z
M 1318 678 
L 1619 678 
Q 1888 678 2141 745 
Q 2394 813 2586 976 
Q 2778 1139 2893 1411 
Q 3008 1683 3008 2099 
Q 3008 2707 2662 3030 
Q 2317 3354 1734 3354 
L 1318 3354 
L 1318 678 
z
" transform="scale(0.015625)"/>
      <path id="Mukta-Bold-41" d="M 1504 1574 
L 2528 1574 
L 2342 2112 
Q 2253 2362 2176 2614 
Q 2099 2867 2029 3123 
L 2016 3123 
Q 1946 2880 1862 2627 
Q 1779 2374 1690 2112 
L 1504 1574 
z
M 1581 4032 
L 2490 4032 
L 3981 0 
L 3053 0 
L 2739 928 
L 1306 928 
L 992 0 
L 77 0 
L 1581 4032 
z
" transform="scale(0.015625)"/>
      <path id="Mukta-Bold-66" d="M 1632 4576 
Q 1862 4576 2086 4515 
Q 2310 4454 2477 4358 
L 2310 3802 
Q 2202 3853 2093 3888 
Q 1984 3923 1856 3923 
Q 1632 3923 1523 3792 
Q 1414 3661 1414 3347 
L 1414 3053 
L 2182 3053 
L 2182 2438 
L 1414 2438 
L 1414 0 
L 570 0 
L 570 2438 
L 102 2438 
L 102 3053 
L 570 3053 
L 570 3526 
Q 570 4038 858 4307 
Q 1146 4576 1632 4576 
z
" transform="scale(0.015625)"/>
     </defs>
     <use xlink:href="#Mukta-Bold-45"/>
     <use xlink:href="#Mukta-Bold-63" x="51.699997"/>
     <use xlink:href="#Mukta-Bold-6f" x="97.799988"/>
     <use xlink:href="#Mukta-Bold-6e" x="153.699982"/>
     <use xlink:href="#Mukta-Bold-6f" x="210.099976"/>
     <use xlink:href="#Mukta-Bold-6d" x="265.999969"/>
     <use xlink:href="#Mukta-Bold-69" x="351.399963"/>
     <use xlink:href="#Mukta-Bold-63" x="378.999954"/>
     <use xlink:href="#Mukta-Bold-20" x="425.099945"/>
     <use xlink:href="#Mukta-Bold-44" x="448.09993"/>
     <use xlink:href="#Mukta-Bold-69" x="513.499924"/>
     <use xlink:href="#Mukta-Bold-76" x="541.099915"/>
     <use xlink:href="#Mukta-Bold-65" x="591.699905"/>
     <use xlink:href="#Mukta-Bold-72" x="643.599899"/>
     <use xlink:href="#Mukta-Bold-67" x="682.599884"/>
     <use xlink:href="#Mukta-Bold-65" x="739.299881"/>
     <use xlink:href="#Mukta-Bold-6e" x="791.199875"/>
     <use xlink:href="#Mukta-Bold-63" x="847.599869"/>
     <use xlink:href="#Mukta-Bold-65" x="893.69986"/>
     <use xlink:href="#Mukta-Bold-20" x="945.599854"/>
     <use xlink:href="#Mukta-Bold-41" x="968.599838"/>
     <use xlink:href="#Mukta-Bold-63" x="1031.899826"/>
     <use xlink:href="#Mukta-Bold-72" x="1077.999817"/>
     <use xlink:href="#Mukta-Bold-6f" x="1116.999802"/>
     <use xlink:href="#Mukta-Bold-73" x="1172.899796"/>
     <use xlink:href="#Mukta-Bold-73" x="1216.39978"/>
     <use xlink:href="#Mukta-Bold-20" x="1259.899765"/>
     <use xlink:href="#Mukta-Bold-74" x="1282.89975"/>
     <use xlink:href="#Mukta-Bold-68" x="1321.099747"/>
     <use xlink:href="#Mukta-Bold-65" x="1378.199738"/>
     <use xlink:href="#Mukta-Bold-20" x="1430.099731"/>
     <use xlink:href="#Mukta-Bold-50" x="1453.099716"/>
     <use xlink:href="#Mukta-Bold-61" x="1509.099701"/>
     <use xlink:href="#Mukta-Bold-63" x="1559.699692"/>
     <use xlink:href="#Mukta-Bold-69" x="1605.799683"/>
     <use xlink:href="#Mukta-Bold-66" x="1633.399673"/>
     <use xlink:href="#Mukta-Bold-69" x="1670.299667"/>
     <use xlink:href="#Mukta-Bold-63" x="1697.899658"/>
    </g>
   </g>
   <g id="text_26">
    <!-- GNI per capita in Pacific island nations, 20202024 -->
    <g transform="translate(77.952756 88.44757) scale(0.2 -0.2)">
     <defs>
      <path id="Mukta-Light-47" d="M 2246 4083 
Q 2592 4083 2861 4032 
Q 3130 3981 3373 3853 
L 3258 3488 
Q 3034 3597 2800 3654 
Q 2566 3712 2317 3712 
Q 2010 3712 1731 3622 
Q 1453 3533 1241 3331 
Q 1030 3130 902 2803 
Q 774 2477 774 2010 
Q 774 1606 883 1289 
Q 992 973 1193 758 
Q 1395 544 1670 432 
Q 1946 320 2285 320 
Q 2528 320 2710 352 
Q 2893 384 3021 435 
L 3021 1715 
L 2208 1715 
L 2208 2074 
L 3462 2074 
L 3462 160 
Q 3226 64 2947 3 
Q 2669 -58 2266 -58 
Q 1856 -58 1497 76 
Q 1139 211 870 473 
Q 602 736 445 1120 
Q 288 1504 288 2010 
Q 288 2515 435 2905 
Q 582 3296 844 3555 
Q 1107 3814 1465 3948 
Q 1824 4083 2246 4083 
z
" transform="scale(0.015625)"/>
      <path id="Mukta-Light-4e" d="M 512 4032 
L 928 4032 
L 2726 1427 
Q 2848 1248 2966 1069 
Q 3085 890 3194 710 
L 3206 710 
Q 3194 947 3190 1180 
Q 3187 1414 3187 1651 
L 3187 4032 
L 3635 4032 
L 3635 0 
L 3219 0 
L 1459 2528 
Q 1325 2720 1193 2941 
Q 1062 3162 947 3379 
L 934 3379 
Q 947 3091 953 2812 
Q 960 2534 960 2246 
L 960 0 
L 512 0 
L 512 4032 
z
" transform="scale(0.015625)"/>
      <path id="Mukta-Light-49" d="M 973 4032 
L 973 0 
L 512 0 
L 512 4032 
L 973 4032 
z
" transform="scale(0.015625)"/>
      <path id="Mukta-Light-20" transform="scale(0.015625)"/>
      <path id="Mukta-Light-70" d="M 1619 -58 
Q 1414 -58 1225 0 
Q 1037 58 902 154 
L 902 -1472 
L 461 -1472 
L 461 3046 
L 832 3046 
L 896 2662 
Q 1056 2816 1277 2931 
Q 1498 3046 1805 3046 
Q 2093 3046 2329 2950 
Q 2566 2854 2736 2665 
Q 2906 2477 2998 2201 
Q 3091 1926 3091 1574 
Q 3091 1152 2966 845 
Q 2842 538 2634 336 
Q 2426 134 2160 38 
Q 1894 -58 1619 -58 
z
M 1709 2682 
Q 1568 2682 1443 2643 
Q 1318 2605 1216 2544 
Q 1114 2483 1034 2409 
Q 954 2336 902 2266 
L 902 506 
Q 1050 397 1219 345 
Q 1389 294 1562 294 
Q 1760 294 1952 361 
Q 2144 429 2291 579 
Q 2438 730 2531 973 
Q 2624 1216 2624 1568 
Q 2624 2093 2400 2387 
Q 2176 2682 1709 2682 
z
" transform="scale(0.015625)"/>
      <path id="Mukta-Light-65" d="M 2874 1472 
L 723 1472 
L 723 1414 
Q 723 883 1011 588 
Q 1299 294 1798 294 
Q 2022 294 2214 329 
Q 2406 365 2611 448 
L 2707 115 
Q 2528 38 2288 -10 
Q 2048 -58 1779 -58 
Q 1466 -58 1190 32 
Q 915 122 707 310 
Q 499 499 377 793 
Q 256 1088 256 1498 
Q 256 1850 358 2138 
Q 461 2426 643 2627 
Q 826 2829 1085 2937 
Q 1344 3046 1664 3046 
Q 1939 3046 2160 2953 
Q 2381 2861 2541 2688 
Q 2701 2515 2787 2272 
Q 2874 2029 2874 1734 
L 2874 1472 
z
M 2413 1805 
Q 2413 1984 2368 2147 
Q 2323 2310 2230 2435 
Q 2138 2560 1990 2633 
Q 1843 2707 1638 2707 
Q 1267 2707 1027 2464 
Q 787 2221 736 1798 
L 2413 1805 
z
" transform="scale(0.015625)"/>
      <path id="Mukta-Light-72" d="M 448 0 
L 448 3008 
L 768 3008 
L 851 2406 
Q 960 2694 1216 2870 
Q 1472 3046 1798 3046 
Q 1958 3046 2073 3020 
Q 2189 2995 2259 2963 
L 2176 2566 
Q 2099 2605 2003 2630 
Q 1907 2656 1779 2656 
Q 1594 2656 1434 2589 
Q 1274 2522 1152 2394 
Q 1030 2266 960 2067 
Q 890 1869 890 1613 
L 890 0 
L 448 0 
z
" transform="scale(0.015625)"/>
      <path id="Mukta-Light-63" d="M 1818 282 
Q 2022 282 2182 326 
Q 2342 371 2490 442 
L 2586 115 
Q 2240 -58 1773 -58 
Q 1459 -58 1184 38 
Q 909 134 701 329 
Q 493 525 374 816 
Q 256 1107 256 1498 
Q 256 1856 368 2144 
Q 480 2432 681 2633 
Q 883 2835 1158 2940 
Q 1434 3046 1766 3046 
Q 1965 3046 2153 3017 
Q 2342 2989 2573 2886 
L 2470 2541 
Q 2304 2630 2147 2665 
Q 1990 2701 1824 2701 
Q 1325 2701 1021 2387 
Q 717 2074 717 1517 
Q 717 1165 813 928 
Q 909 691 1062 547 
Q 1216 403 1414 342 
Q 1613 282 1818 282 
z
" transform="scale(0.015625)"/>
      <path id="Mukta-Light-61" d="M 442 2739 
Q 742 2899 995 2972 
Q 1248 3046 1555 3046 
Q 1786 3046 1981 2992 
Q 2176 2938 2320 2810 
Q 2464 2682 2544 2474 
Q 2624 2266 2624 1958 
L 2624 0 
L 2278 0 
L 2208 365 
L 2195 365 
Q 2003 141 1756 41 
Q 1510 -58 1216 -58 
Q 1005 -58 822 3 
Q 640 64 509 179 
Q 378 294 304 454 
Q 230 614 230 813 
Q 230 1050 326 1229 
Q 422 1408 598 1529 
Q 774 1651 1020 1712 
Q 1267 1773 1568 1773 
L 2176 1773 
L 2176 1997 
Q 2176 2381 1997 2531 
Q 1818 2682 1523 2682 
Q 1344 2682 1117 2627 
Q 890 2573 614 2419 
L 442 2739 
z
M 2176 1446 
L 1677 1440 
Q 1146 1427 922 1254 
Q 698 1082 698 832 
Q 698 531 883 409 
Q 1069 288 1325 288 
Q 1549 288 1779 393 
Q 2010 499 2176 742 
L 2176 1446 
z
" transform="scale(0.015625)"/>
      <path id="Mukta-Light-69" d="M 518 0 
L 518 3008 
L 966 3008 
L 966 0 
L 518 0 
z
M 742 3782 
Q 614 3782 528 3865 
Q 442 3949 442 4083 
Q 442 4218 528 4304 
Q 614 4390 742 4390 
Q 858 4390 950 4307 
Q 1043 4224 1043 4083 
Q 1043 3942 953 3862 
Q 864 3782 742 3782 
z
" transform="scale(0.015625)"/>
      <path id="Mukta-Light-74" d="M 2016 2669 
L 1069 2669 
L 1069 806 
Q 1069 544 1193 454 
Q 1318 365 1523 365 
Q 1683 365 1836 397 
Q 1990 429 2106 467 
L 2176 128 
Q 2048 77 1856 38 
Q 1664 0 1440 0 
Q 621 0 621 749 
L 621 2669 
L 128 2669 
L 128 3008 
L 621 3008 
L 621 3968 
L 1069 3968 
L 1069 3008 
L 2016 3008 
L 2016 2669 
z
" transform="scale(0.015625)"/>
      <path id="Mukta-Light-6e" d="M 909 0 
L 461 0 
L 461 3008 
L 800 3008 
L 870 2592 
Q 1094 2803 1340 2924 
Q 1587 3046 1907 3046 
Q 2368 3046 2630 2790 
Q 2893 2534 2893 2074 
L 2893 0 
L 2445 0 
L 2445 1990 
Q 2445 2291 2291 2486 
Q 2138 2682 1779 2682 
Q 1555 2682 1324 2570 
Q 1094 2458 909 2253 
L 909 0 
z
" transform="scale(0.015625)"/>
      <path id="Mukta-Light-50" d="M 512 4032 
L 1696 4032 
Q 1990 4032 2240 3955 
Q 2490 3878 2672 3728 
Q 2854 3578 2953 3357 
Q 3053 3136 3053 2842 
Q 3053 2541 2944 2313 
Q 2835 2086 2646 1936 
Q 2458 1786 2198 1709 
Q 1939 1632 1632 1632 
L 973 1632 
L 973 0 
L 512 0 
L 512 4032 
z
M 973 2010 
L 1434 2010 
Q 1683 2010 1894 2048 
Q 2106 2086 2253 2179 
Q 2400 2272 2483 2432 
Q 2566 2592 2566 2835 
Q 2566 3072 2480 3232 
Q 2394 3392 2256 3488 
Q 2118 3584 1939 3622 
Q 1760 3661 1574 3661 
L 973 3661 
L 973 2010 
z
" transform="scale(0.015625)"/>
      <path id="Mukta-Light-66" d="M 1555 4576 
Q 1734 4576 1929 4525 
Q 2125 4474 2278 4397 
L 2182 4077 
Q 2054 4141 1916 4176 
Q 1779 4211 1658 4211 
Q 1344 4211 1197 4035 
Q 1050 3859 1050 3437 
L 1050 3008 
L 2022 3008 
L 2022 2669 
L 1050 2669 
L 1050 0 
L 602 0 
L 602 2669 
L 109 2669 
L 109 3008 
L 602 3008 
L 602 3558 
Q 602 4058 851 4317 
Q 1101 4576 1555 4576 
z
" transform="scale(0.015625)"/>
      <path id="Mukta-Light-73" d="M 2074 2534 
Q 1888 2624 1718 2662 
Q 1549 2701 1363 2701 
Q 1037 2701 877 2573 
Q 717 2445 717 2240 
Q 717 2054 841 1948 
Q 966 1843 1312 1741 
L 1504 1683 
Q 1901 1562 2109 1357 
Q 2317 1152 2317 826 
Q 2317 442 2029 192 
Q 1741 -58 1203 -58 
Q 915 -58 672 -10 
Q 429 38 250 128 
L 365 480 
Q 538 390 736 342 
Q 934 294 1171 294 
Q 1498 294 1680 419 
Q 1862 544 1862 787 
Q 1862 992 1718 1110 
Q 1574 1229 1254 1331 
L 1050 1395 
Q 653 1523 461 1718 
Q 269 1914 269 2214 
Q 269 2400 345 2553 
Q 422 2707 563 2816 
Q 704 2925 893 2985 
Q 1082 3046 1312 3046 
Q 1523 3046 1753 3008 
Q 1984 2970 2182 2880 
L 2074 2534 
z
" transform="scale(0.015625)"/>
      <path id="Mukta-Light-6c" d="M 486 0 
L 486 4544 
L 928 4544 
L 928 0 
L 486 0 
z
" transform="scale(0.015625)"/>
      <path id="Mukta-Light-64" d="M 2438 4544 
L 2886 4544 
L 2886 0 
L 2515 0 
L 2458 307 
L 2445 307 
Q 2278 128 2073 35 
Q 1869 -58 1555 -58 
Q 1312 -58 1081 38 
Q 851 134 665 326 
Q 480 518 368 809 
Q 256 1101 256 1498 
Q 256 1850 349 2138 
Q 442 2426 618 2627 
Q 794 2829 1046 2937 
Q 1299 3046 1619 3046 
Q 1856 3046 2064 2976 
Q 2272 2906 2438 2758 
L 2438 4544 
z
M 2438 2349 
Q 2298 2515 2106 2608 
Q 1914 2701 1709 2701 
Q 1517 2701 1337 2637 
Q 1158 2573 1020 2432 
Q 883 2291 800 2064 
Q 717 1837 717 1517 
Q 717 1184 797 953 
Q 877 723 1011 576 
Q 1146 429 1315 361 
Q 1485 294 1664 294 
Q 1926 294 2118 396 
Q 2310 499 2438 685 
L 2438 2349 
z
" transform="scale(0.015625)"/>
      <path id="Mukta-Light-6f" d="M 3072 1536 
Q 3072 1158 2963 860 
Q 2854 563 2662 358 
Q 2470 154 2211 48 
Q 1952 -58 1658 -58 
Q 1357 -58 1101 41 
Q 845 141 659 336 
Q 474 531 365 816 
Q 256 1101 256 1472 
Q 256 1850 368 2144 
Q 480 2438 672 2640 
Q 864 2842 1123 2944 
Q 1382 3046 1683 3046 
Q 1978 3046 2234 2950 
Q 2490 2854 2675 2662 
Q 2861 2470 2966 2188 
Q 3072 1907 3072 1536 
z
M 2605 1504 
Q 2605 1818 2525 2045 
Q 2445 2272 2313 2416 
Q 2182 2560 2012 2627 
Q 1843 2694 1664 2694 
Q 1485 2694 1315 2630 
Q 1146 2566 1014 2425 
Q 883 2285 803 2057 
Q 723 1830 723 1504 
Q 723 1178 803 947 
Q 883 717 1017 573 
Q 1152 429 1325 361 
Q 1498 294 1677 294 
Q 1856 294 2022 355 
Q 2189 416 2320 560 
Q 2451 704 2528 934 
Q 2605 1165 2605 1504 
z
" transform="scale(0.015625)"/>
      <path id="Mukta-Light-2c" d="M 608 -58 
Q 474 -38 394 61 
Q 314 160 314 301 
Q 314 435 403 534 
Q 493 634 646 634 
Q 710 634 777 611 
Q 845 589 902 531 
Q 960 474 995 374 
Q 1030 275 1030 122 
Q 1030 -198 838 -464 
Q 646 -730 371 -877 
L 211 -659 
Q 397 -563 521 -412 
Q 646 -262 685 -70 
L 608 -58 
z
" transform="scale(0.015625)"/>
      <path id="Mukta-Light-32" d="M 1421 3718 
Q 1210 3718 998 3648 
Q 787 3578 557 3392 
L 358 3693 
Q 646 3936 912 4009 
Q 1178 4083 1421 4083 
Q 1734 4083 1968 3993 
Q 2202 3904 2355 3747 
Q 2509 3590 2585 3376 
Q 2662 3162 2662 2912 
Q 2662 2682 2576 2445 
Q 2490 2208 2320 1958 
Q 2150 1709 1904 1430 
Q 1658 1152 1338 832 
L 864 365 
L 2790 365 
L 2790 0 
L 365 0 
L 288 307 
L 826 838 
Q 1203 1216 1465 1504 
Q 1728 1792 1891 2029 
Q 2054 2266 2128 2474 
Q 2202 2682 2202 2893 
Q 2202 3264 2006 3491 
Q 1811 3718 1421 3718 
z
" transform="scale(0.015625)"/>
      <path id="Mukta-Light-30" d="M 1843 4083 
Q 2170 4083 2448 3961 
Q 2726 3840 2934 3587 
Q 3142 3334 3260 2944 
Q 3379 2554 3379 2016 
Q 3379 1478 3254 1084 
Q 3130 691 2918 438 
Q 2707 186 2428 64 
Q 2150 -58 1843 -58 
Q 1523 -58 1241 64 
Q 960 186 752 438 
Q 544 691 425 1084 
Q 307 1478 307 2016 
Q 307 2534 432 2921 
Q 557 3309 768 3568 
Q 979 3827 1257 3955 
Q 1536 4083 1843 4083 
z
M 768 2016 
Q 768 1517 857 1187 
Q 947 858 1100 662 
Q 1254 467 1449 384 
Q 1645 301 1856 301 
Q 2067 301 2259 390 
Q 2451 480 2598 685 
Q 2746 890 2832 1216 
Q 2918 1542 2918 2016 
Q 2918 2509 2828 2838 
Q 2739 3168 2585 3366 
Q 2432 3565 2237 3648 
Q 2042 3731 1830 3731 
Q 1619 3731 1427 3641 
Q 1235 3552 1088 3347 
Q 941 3142 854 2816 
Q 768 2490 768 2016 
z
" transform="scale(0.015625)"/>
      <path id="Mukta-Light-2013" d="M 2989 1594 
L 2989 1267 
L 346 1267 
L 346 1594 
L 2989 1594 
z
" transform="scale(0.015625)"/>
      <path id="Mukta-Light-34" d="M 2099 4032 
L 2541 4032 
L 2541 1427 
L 3206 1427 
L 3206 1056 
L 2541 1056 
L 2541 0 
L 2112 0 
L 2112 1056 
L 128 1056 
L 128 1325 
L 2099 4032 
z
M 646 1427 
L 2112 1427 
L 2112 2714 
L 2144 3571 
L 2131 3571 
L 1690 2867 
L 646 1427 
z
" transform="scale(0.015625)"/>
     </defs>
     <use xlink:href="#Mukta-Light-47"/>
     <use xlink:href="#Mukta-Light-4e" x="59.899994"/>
     <use xlink:href="#Mukta-Light-49" x="124.599991"/>
     <use xlink:href="#Mukta-Light-20" x="147.699982"/>
     <use xlink:href="#Mukta-Light-70" x="169.399979"/>
     <use xlink:href="#Mukta-Light-65" x="221.699966"/>
     <use xlink:href="#Mukta-Light-72" x="270.499954"/>
     <use xlink:href="#Mukta-Light-20" x="306.799942"/>
     <use xlink:href="#Mukta-Light-63" x="328.499939"/>
     <use xlink:href="#Mukta-Light-61" x="371.899933"/>
     <use xlink:href="#Mukta-Light-70" x="419.299927"/>
     <use xlink:href="#Mukta-Light-69" x="471.599915"/>
     <use xlink:href="#Mukta-Light-74" x="494.799911"/>
     <use xlink:href="#Mukta-Light-61" x="530.899902"/>
     <use xlink:href="#Mukta-Light-20" x="578.299896"/>
     <use xlink:href="#Mukta-Light-69" x="599.999893"/>
     <use xlink:href="#Mukta-Light-6e" x="623.19989"/>
     <use xlink:href="#Mukta-Light-20" x="675.599884"/>
     <use xlink:href="#Mukta-Light-50" x="697.299881"/>
     <use xlink:href="#Mukta-Light-61" x="748.499878"/>
     <use xlink:href="#Mukta-Light-63" x="795.899872"/>
     <use xlink:href="#Mukta-Light-69" x="839.299866"/>
     <use xlink:href="#Mukta-Light-66" x="862.499863"/>
     <use xlink:href="#Mukta-Light-69" x="894.79985"/>
     <use xlink:href="#Mukta-Light-63" x="917.999847"/>
     <use xlink:href="#Mukta-Light-20" x="961.399841"/>
     <use xlink:href="#Mukta-Light-69" x="983.099838"/>
     <use xlink:href="#Mukta-Light-73" x="1006.299835"/>
     <use xlink:href="#Mukta-Light-6c" x="1046.399826"/>
     <use xlink:href="#Mukta-Light-61" x="1068.499817"/>
     <use xlink:href="#Mukta-Light-6e" x="1115.899811"/>
     <use xlink:href="#Mukta-Light-64" x="1168.299805"/>
     <use xlink:href="#Mukta-Light-20" x="1220.199799"/>
     <use xlink:href="#Mukta-Light-6e" x="1241.899796"/>
     <use xlink:href="#Mukta-Light-61" x="1294.299789"/>
     <use xlink:href="#Mukta-Light-74" x="1341.699783"/>
     <use xlink:href="#Mukta-Light-69" x="1377.799774"/>
     <use xlink:href="#Mukta-Light-6f" x="1400.999771"/>
     <use xlink:href="#Mukta-Light-6e" x="1452.999756"/>
     <use xlink:href="#Mukta-Light-73" x="1505.39975"/>
     <use xlink:href="#Mukta-Light-2c" x="1545.499741"/>
     <use xlink:href="#Mukta-Light-20" x="1564.299728"/>
     <use xlink:href="#Mukta-Light-32" x="1585.999725"/>
     <use xlink:href="#Mukta-Light-30" x="1633.899719"/>
     <use xlink:href="#Mukta-Light-32" x="1691.399704"/>
     <use xlink:href="#Mukta-Light-30" x="1739.299698"/>
     <use xlink:href="#Mukta-Light-2013" x="1796.799683"/>
     <use xlink:href="#Mukta-Light-32" x="1848.899673"/>
     <use xlink:href="#Mukta-Light-30" x="1896.799667"/>
     <use xlink:href="#Mukta-Light-32" x="1954.299652"/>
     <use xlink:href="#Mukta-Light-34" x="2002.199646"/>
    </g>
   </g>
   <g id="text_27">
    <!-- Data: World Bank | Viz by Akin Orhan -->
    <g style="fill: #808080" transform="translate(77.952756 625.24063) scale(0.12 -0.12)">
     <defs>
      <path id="Mukta-Light-44" d="M 1760 4032 
Q 2170 4032 2525 3910 
Q 2880 3789 3136 3549 
Q 3392 3309 3539 2947 
Q 3686 2586 3686 2106 
Q 3686 1523 3513 1120 
Q 3341 717 3046 467 
Q 2752 218 2361 109 
Q 1971 0 1536 0 
L 512 0 
L 512 4032 
L 1760 4032 
z
M 973 378 
L 1478 378 
Q 1798 378 2105 451 
Q 2413 525 2656 720 
Q 2899 915 3046 1251 
Q 3194 1587 3194 2106 
Q 3194 2477 3082 2765 
Q 2970 3053 2768 3251 
Q 2566 3450 2278 3552 
Q 1990 3654 1645 3654 
L 973 3654 
L 973 378 
z
" transform="scale(0.015625)"/>
      <path id="Mukta-Light-3a" d="M 326 288 
Q 326 435 422 531 
Q 518 627 653 627 
Q 781 627 877 531 
Q 973 435 973 288 
Q 973 128 877 38 
Q 781 -51 653 -51 
Q 518 -51 422 38 
Q 326 128 326 288 
z
M 326 2266 
Q 326 2413 422 2509 
Q 518 2605 653 2605 
Q 781 2605 877 2509 
Q 973 2413 973 2266 
Q 973 2106 877 2013 
Q 781 1920 653 1920 
Q 518 1920 422 2013 
Q 326 2106 326 2266 
z
" transform="scale(0.015625)"/>
      <path id="Mukta-Light-57" d="M 525 4032 
L 1203 1658 
Q 1274 1421 1344 1120 
Q 1414 819 1466 550 
L 1478 550 
Q 1530 819 1606 1116 
Q 1683 1414 1754 1658 
L 2451 4032 
L 2874 4032 
L 3590 1658 
Q 3661 1414 3734 1120 
Q 3808 826 3872 550 
L 3885 550 
Q 3936 832 4006 1126 
Q 4077 1421 4147 1658 
L 4800 4032 
L 5267 4032 
L 4109 0 
L 3642 0 
L 2944 2419 
Q 2874 2688 2797 2944 
Q 2720 3200 2662 3443 
L 2650 3443 
Q 2598 3226 2540 3014 
Q 2483 2803 2426 2592 
L 1702 0 
L 1242 0 
L 51 4032 
L 525 4032 
z
" transform="scale(0.015625)"/>
      <path id="Mukta-Light-42" d="M 1594 4032 
Q 2195 4032 2531 3773 
Q 2867 3514 2867 3014 
Q 2867 2643 2659 2435 
Q 2451 2227 2138 2144 
Q 2317 2112 2470 2032 
Q 2624 1952 2739 1824 
Q 2854 1696 2921 1520 
Q 2989 1344 2989 1126 
Q 2989 877 2883 669 
Q 2778 461 2586 313 
Q 2394 166 2125 83 
Q 1856 0 1536 0 
L 512 0 
L 512 4032 
L 1594 4032 
z
M 973 2304 
L 1459 2304 
Q 1638 2304 1808 2336 
Q 1978 2368 2109 2445 
Q 2240 2522 2317 2653 
Q 2394 2784 2394 2982 
Q 2394 3341 2147 3501 
Q 1901 3661 1504 3661 
L 973 3661 
L 973 2304 
z
M 973 371 
L 1472 371 
Q 1683 371 1868 412 
Q 2054 454 2195 550 
Q 2336 646 2419 803 
Q 2502 960 2502 1184 
Q 2502 1402 2412 1546 
Q 2323 1690 2172 1776 
Q 2022 1862 1827 1900 
Q 1632 1939 1427 1939 
L 973 1939 
L 973 371 
z
" transform="scale(0.015625)"/>
      <path id="Mukta-Light-6b" d="M 922 1101 
L 922 0 
L 474 0 
L 474 4544 
L 922 4544 
L 922 1600 
L 2278 3008 
L 2835 3008 
L 1587 1741 
L 2893 0 
L 2362 0 
L 1293 1472 
L 922 1101 
z
" transform="scale(0.015625)"/>
      <path id="Mukta-Light-7c" d="M 461 -1472 
L 461 4800 
L 851 4800 
L 851 -1472 
L 461 -1472 
z
" transform="scale(0.015625)"/>
      <path id="Mukta-Light-56" d="M 512 4032 
L 1382 1670 
Q 1485 1402 1593 1110 
Q 1702 819 1792 550 
L 1805 550 
Q 1901 838 2003 1120 
Q 2106 1402 2208 1670 
L 3091 4032 
L 3578 4032 
L 2010 0 
L 1562 0 
L 19 4032 
L 512 4032 
z
" transform="scale(0.015625)"/>
      <path id="Mukta-Light-7a" d="M 2445 2752 
L 704 346 
L 2477 346 
L 2477 0 
L 160 0 
L 160 282 
L 1882 2656 
L 269 2656 
L 269 3008 
L 2445 3008 
L 2445 2752 
z
" transform="scale(0.015625)"/>
      <path id="Mukta-Light-62" d="M 3136 1504 
Q 3136 1146 3027 858 
Q 2918 570 2736 365 
Q 2554 160 2307 51 
Q 2061 -58 1786 -58 
Q 1491 -58 1276 25 
Q 1062 109 870 282 
L 858 282 
L 806 0 
L 474 0 
L 474 4544 
L 922 4544 
L 922 2630 
Q 1088 2816 1331 2931 
Q 1574 3046 1862 3046 
Q 2138 3046 2374 2947 
Q 2611 2848 2777 2649 
Q 2944 2451 3040 2163 
Q 3136 1875 3136 1504 
z
M 2669 1498 
Q 2669 2061 2425 2371 
Q 2182 2682 1773 2682 
Q 1517 2682 1299 2554 
Q 1082 2426 922 2234 
L 922 634 
Q 1050 486 1248 390 
Q 1446 294 1677 294 
Q 1869 294 2048 371 
Q 2227 448 2364 598 
Q 2502 749 2585 973 
Q 2669 1197 2669 1498 
z
" transform="scale(0.015625)"/>
      <path id="Mukta-Light-79" d="M 64 3008 
L 538 3008 
L 1248 1146 
L 1472 448 
L 1485 448 
L 1696 1146 
L 2336 3008 
L 2784 3008 
L 1626 -256 
Q 1440 -774 1161 -1072 
Q 883 -1370 493 -1517 
L 307 -1171 
Q 621 -1043 851 -819 
Q 1082 -595 1222 -173 
L 1280 0 
L 64 3008 
z
" transform="scale(0.015625)"/>
      <path id="Mukta-Light-41" d="M 1126 1523 
L 2586 1523 
L 2266 2387 
Q 2176 2611 2080 2896 
Q 1984 3181 1875 3520 
L 1862 3520 
Q 1811 3354 1760 3206 
Q 1709 3059 1661 2924 
Q 1613 2790 1565 2659 
Q 1517 2528 1459 2387 
L 1126 1523 
z
M 1664 4032 
L 2093 4032 
L 3654 0 
L 3168 0 
L 2726 1152 
L 998 1152 
L 557 0 
L 77 0 
L 1664 4032 
z
" transform="scale(0.015625)"/>
      <path id="Mukta-Light-4f" d="M 2144 4083 
Q 2528 4083 2864 3955 
Q 3200 3827 3443 3568 
Q 3686 3309 3827 2921 
Q 3968 2534 3968 2016 
Q 3968 1510 3824 1123 
Q 3680 736 3430 473 
Q 3181 211 2841 76 
Q 2502 -58 2118 -58 
Q 1734 -58 1398 73 
Q 1062 205 819 464 
Q 576 723 435 1110 
Q 294 1498 294 2016 
Q 294 2522 438 2906 
Q 582 3290 832 3552 
Q 1082 3814 1418 3948 
Q 1754 4083 2144 4083 
z
M 787 2016 
Q 787 1581 896 1261 
Q 1005 941 1190 729 
Q 1376 518 1622 416 
Q 1869 314 2144 314 
Q 2419 314 2659 416 
Q 2899 518 3081 729 
Q 3264 941 3369 1261 
Q 3475 1581 3475 2016 
Q 3475 2458 3366 2781 
Q 3258 3104 3072 3309 
Q 2886 3514 2640 3613 
Q 2394 3712 2118 3712 
Q 1843 3712 1603 3609 
Q 1363 3507 1180 3296 
Q 998 3085 892 2765 
Q 787 2445 787 2016 
z
" transform="scale(0.015625)"/>
      <path id="Mukta-Light-68" d="M 922 0 
L 474 0 
L 474 4544 
L 922 4544 
L 922 2611 
Q 1133 2797 1389 2921 
Q 1645 3046 1952 3046 
Q 2202 3046 2387 2972 
Q 2573 2899 2691 2768 
Q 2810 2637 2870 2461 
Q 2931 2285 2931 2074 
L 2931 0 
L 2483 0 
L 2483 1952 
Q 2483 2342 2313 2512 
Q 2144 2682 1837 2682 
Q 1613 2682 1379 2566 
Q 1146 2451 922 2246 
L 922 0 
z
" transform="scale(0.015625)"/>
     </defs>
     <use xlink:href="#Mukta-Light-44"/>
     <use xlink:href="#Mukta-Light-61" x="62.199997"/>
     <use xlink:href="#Mukta-Light-74" x="109.599991"/>
     <use xlink:href="#Mukta-Light-61" x="145.699982"/>
     <use xlink:href="#Mukta-Light-3a" x="193.099976"/>
     <use xlink:href="#Mukta-Light-20" x="213.399963"/>
     <use xlink:href="#Mukta-Light-57" x="235.09996"/>
     <use xlink:href="#Mukta-Light-6f" x="318.199951"/>
     <use xlink:href="#Mukta-Light-72" x="370.199936"/>
     <use xlink:href="#Mukta-Light-6c" x="406.499924"/>
     <use xlink:href="#Mukta-Light-64" x="428.599915"/>
     <use xlink:href="#Mukta-Light-20" x="480.499908"/>
     <use xlink:href="#Mukta-Light-42" x="502.199905"/>
     <use xlink:href="#Mukta-Light-61" x="553.899902"/>
     <use xlink:href="#Mukta-Light-6e" x="601.299896"/>
     <use xlink:href="#Mukta-Light-6b" x="653.69989"/>
     <use xlink:href="#Mukta-Light-20" x="699.399887"/>
     <use xlink:href="#Mukta-Light-7c" x="721.099884"/>
     <use xlink:href="#Mukta-Light-20" x="741.599869"/>
     <use xlink:href="#Mukta-Light-56" x="763.299866"/>
     <use xlink:href="#Mukta-Light-69" x="819.399857"/>
     <use xlink:href="#Mukta-Light-7a" x="842.599854"/>
     <use xlink:href="#Mukta-Light-20" x="883.699844"/>
     <use xlink:href="#Mukta-Light-62" x="905.399841"/>
     <use xlink:href="#Mukta-Light-79" x="958.399826"/>
     <use xlink:href="#Mukta-Light-20" x="1002.79982"/>
     <use xlink:href="#Mukta-Light-41" x="1024.499817"/>
     <use xlink:href="#Mukta-Light-6b" x="1082.799805"/>
     <use xlink:href="#Mukta-Light-69" x="1128.499802"/>
     <use xlink:href="#Mukta-Light-6e" x="1151.699799"/>
     <use xlink:href="#Mukta-Light-20" x="1204.099792"/>
     <use xlink:href="#Mukta-Light-4f" x="1225.799789"/>
     <use xlink:href="#Mukta-Light-72" x="1292.39978"/>
     <use xlink:href="#Mukta-Light-68" x="1328.699768"/>
     <use xlink:href="#Mukta-Light-61" x="1381.799759"/>
     <use xlink:href="#Mukta-Light-6e" x="1429.199753"/>
    </g>
   </g>
  </g>
 </g>
 <defs>
  <clipPath id="pef010a0e82">
   <rect x="77.952756" y="130.393701" width="483.307087" height="449.858268"/>
  </clipPath>
 </defs>
</svg>
