<?xml version="1.0" encoding="utf-8" standalone="no"?>
<!DOCTYPE svg PUBLIC "-//W3C//DTD SVG 1.1//EN"
  "http://www.w3.org/Graphics/SVG/1.1/DTD/svg11.dtd">
<svg xmlns:xlink="http://www.w3.org/1999/xlink" width="623.622047pt" height="651.968504pt" viewBox="0 0 623.622047 651.968504" xmlns="http://www.w3.org/2000/svg" version="1.1">
 <metadata>
  <rdf:RDF xmlns:dc="http://purl.org/dc/elements/1.1/" xmlns:cc="http://creativecommons.org/ns#" xmlns:rdf="http://www.w3.org/1999/02/22-rdf-syntax-ns#">
   <cc:Work>
    <dc:type rdf:resource="http://purl.org/dc/dcmitype/StillImage"/>
    <dc:date>2026-01-08T11:11:07.327103</dc:date>
    <dc:format>image/svg+xml</dc:format>
    <dc:creator>
     <cc:Agent>
      <dc:title>Matplotlib v3.9.4, https://matplotlib.org/</dc:title>
     </cc:Agent>
    </dc:creator>
   </cc:Work>
  </rdf:RDF>
 </metadata>
 <defs>
  <style type="text/css">*{stroke-linejoin: round; stroke-linecap: butt}</style>
 </defs>
 <g id="figure_1">
  <g id="patch_1">
   <path d="M 0 651.968504 
L 623.622047 651.968504 
L 623.622047 0 
L 0 0 
L 0 651.968504 
z
" style="fill: none"/>
  </g>
  <g id="axes_1">
   <g id="patch_2">
    <path d="M 77.952756 580.251969 
L 561.259843 580.251969 
L 561.259843 130.393701 
L 77.952756 130.393701 
L 77.952756 580.251969 
z
" style="fill: none"/>
   </g>
   <g id="matplotlib.axis_1">
    <g id="xtick_1">
     <g id="line2d_1">
      <defs>
       <path id="me2b0eecf0c" d="M 0 0 
L 0 3.5 
" style="stroke: #000000; stroke-width: 0.8"/>
      </defs>
      <g>
       <use xlink:href="#me2b0eecf0c" x="99.92126" y="580.251969" style="stroke: #000000; stroke-width: 0.8"/>
      </g>
     </g>
     <g id="text_1">
      <!-- 1950 -->
      <g transform="translate(86.109385 597.191969) scale(0.14 -0.14)">
       <defs>
        <path id="Mukta-Regular-31" d="M 1344 4032 
L 1754 4032 
L 1754 0 
L 1203 0 
L 1203 3443 
L 480 3110 
L 352 3578 
L 1344 4032 
z
" transform="scale(0.015625)"/>
        <path id="Mukta-Regular-39" d="M 1318 -58 
Q 1030 -58 828 -16 
Q 627 26 480 96 
L 614 550 
Q 749 493 899 445 
Q 1050 397 1299 397 
Q 1862 397 2137 752 
Q 2413 1107 2432 1786 
Q 2272 1600 2025 1491 
Q 1779 1382 1510 1382 
Q 1242 1382 1008 1468 
Q 774 1555 604 1724 
Q 435 1894 339 2137 
Q 243 2381 243 2694 
Q 243 3008 345 3267 
Q 448 3526 633 3708 
Q 819 3891 1072 3990 
Q 1325 4090 1632 4090 
Q 1907 4090 2156 3984 
Q 2406 3878 2598 3648 
Q 2790 3418 2905 3056 
Q 3021 2694 3021 2182 
Q 3021 1562 2889 1136 
Q 2758 710 2531 444 
Q 2304 179 1993 60 
Q 1683 -58 1318 -58 
z
M 2432 2509 
Q 2432 2739 2371 2944 
Q 2310 3149 2201 3309 
Q 2093 3469 1933 3561 
Q 1773 3654 1581 3654 
Q 1210 3654 1008 3401 
Q 806 3149 806 2739 
Q 806 2285 1024 2057 
Q 1242 1830 1626 1830 
Q 1894 1830 2080 1948 
Q 2266 2067 2368 2246 
Q 2406 2317 2419 2377 
Q 2432 2438 2432 2509 
z
" transform="scale(0.015625)"/>
        <path id="Mukta-Regular-35" d="M 2733 4045 
L 2733 3578 
L 1242 3565 
L 1120 2502 
Q 1197 2515 1293 2524 
Q 1389 2534 1498 2534 
Q 1734 2534 1980 2470 
Q 2227 2406 2425 2262 
Q 2624 2118 2752 1884 
Q 2880 1651 2880 1312 
Q 2880 1024 2777 774 
Q 2675 525 2473 339 
Q 2272 154 1974 48 
Q 1677 -58 1286 -58 
Q 1062 -58 825 -6 
Q 589 45 403 134 
L 531 589 
Q 685 512 877 461 
Q 1069 410 1274 410 
Q 1760 410 2025 630 
Q 2291 851 2291 1293 
Q 2291 1504 2217 1661 
Q 2144 1818 2013 1920 
Q 1882 2022 1702 2073 
Q 1523 2125 1312 2125 
Q 1139 2125 960 2102 
Q 781 2080 595 2042 
L 794 4032 
L 2733 4045 
z
" transform="scale(0.015625)"/>
        <path id="Mukta-Regular-30" d="M 1843 4090 
Q 2176 4090 2464 3971 
Q 2752 3853 2963 3603 
Q 3174 3354 3292 2960 
Q 3411 2566 3411 2016 
Q 3411 1466 3283 1072 
Q 3155 678 2937 428 
Q 2720 179 2438 60 
Q 2157 -58 1843 -58 
Q 1504 -58 1219 60 
Q 934 179 723 428 
Q 512 678 393 1072 
Q 275 1466 275 2016 
Q 275 2541 403 2931 
Q 531 3322 745 3581 
Q 960 3840 1245 3965 
Q 1530 4090 1843 4090 
z
M 864 2016 
Q 864 1510 947 1193 
Q 1030 877 1164 697 
Q 1299 518 1478 451 
Q 1658 384 1850 384 
Q 2042 384 2218 457 
Q 2394 531 2528 720 
Q 2662 909 2742 1222 
Q 2822 1536 2822 2016 
Q 2822 2515 2739 2835 
Q 2656 3155 2521 3334 
Q 2387 3514 2208 3581 
Q 2029 3648 1837 3648 
Q 1645 3648 1469 3574 
Q 1293 3501 1158 3312 
Q 1024 3123 944 2809 
Q 864 2496 864 2016 
z
" transform="scale(0.015625)"/>
       </defs>
       <use xlink:href="#Mukta-Regular-31"/>
       <use xlink:href="#Mukta-Regular-39" x="36.399994"/>
       <use xlink:href="#Mukta-Regular-35" x="88.099991"/>
       <use xlink:href="#Mukta-Regular-30" x="139.799988"/>
      </g>
     </g>
    </g>
    <g id="xtick_2">
     <g id="line2d_2">
      <g>
       <use xlink:href="#me2b0eecf0c" x="159.295595" y="580.251969" style="stroke: #000000; stroke-width: 0.8"/>
      </g>
     </g>
     <g id="text_2">
      <!-- 1960 -->
      <g transform="translate(145.434501 597.191969) scale(0.14 -0.14)">
       <defs>
        <path id="Mukta-Regular-36" d="M 2016 4090 
Q 2451 4090 2790 3962 
L 2656 3507 
Q 2522 3565 2368 3600 
Q 2214 3635 2035 3635 
Q 1754 3635 1542 3529 
Q 1331 3424 1187 3238 
Q 1043 3053 963 2790 
Q 883 2528 877 2214 
Q 1056 2438 1309 2544 
Q 1562 2650 1830 2650 
Q 2099 2650 2336 2563 
Q 2573 2477 2749 2307 
Q 2925 2138 3027 1894 
Q 3130 1651 3130 1338 
Q 3130 1018 3024 762 
Q 2918 506 2729 323 
Q 2541 141 2285 41 
Q 2029 -58 1722 -58 
Q 1446 -58 1190 48 
Q 934 154 732 384 
Q 531 614 409 976 
Q 288 1338 288 1850 
Q 288 2470 432 2896 
Q 576 3322 816 3587 
Q 1056 3853 1366 3971 
Q 1677 4090 2016 4090 
z
M 877 1472 
Q 877 1242 937 1043 
Q 998 845 1113 697 
Q 1229 550 1389 464 
Q 1549 378 1741 378 
Q 1926 378 2076 448 
Q 2227 518 2336 646 
Q 2445 774 2505 947 
Q 2566 1120 2566 1325 
Q 2566 1779 2336 1990 
Q 2106 2202 1722 2202 
Q 1434 2202 1238 2067 
Q 1043 1933 941 1754 
Q 902 1683 889 1612 
Q 877 1542 877 1472 
z
" transform="scale(0.015625)"/>
       </defs>
       <use xlink:href="#Mukta-Regular-31"/>
       <use xlink:href="#Mukta-Regular-39" x="36.399994"/>
       <use xlink:href="#Mukta-Regular-36" x="88.099991"/>
       <use xlink:href="#Mukta-Regular-30" x="140.499985"/>
      </g>
     </g>
    </g>
    <g id="xtick_3">
     <g id="line2d_3">
      <g>
       <use xlink:href="#me2b0eecf0c" x="218.66993" y="580.251969" style="stroke: #000000; stroke-width: 0.8"/>
      </g>
     </g>
     <g id="text_3">
      <!-- 1970 -->
      <g transform="translate(205.012274 597.191969) scale(0.14 -0.14)">
       <defs>
        <path id="Mukta-Regular-37" d="M 2874 4032 
L 2874 3635 
L 1133 -115 
L 653 96 
L 2310 3565 
L 365 3565 
L 365 4032 
L 2874 4032 
z
" transform="scale(0.015625)"/>
       </defs>
       <use xlink:href="#Mukta-Regular-31"/>
       <use xlink:href="#Mukta-Regular-39" x="36.399994"/>
       <use xlink:href="#Mukta-Regular-37" x="88.099991"/>
       <use xlink:href="#Mukta-Regular-30" x="137.599976"/>
      </g>
     </g>
    </g>
    <g id="xtick_4">
     <g id="line2d_4">
      <g>
       <use xlink:href="#me2b0eecf0c" x="278.044265" y="580.251969" style="stroke: #000000; stroke-width: 0.8"/>
      </g>
     </g>
     <g id="text_4">
      <!-- 1980 -->
      <g transform="translate(264.316608 597.191969) scale(0.14 -0.14)">
       <defs>
        <path id="Mukta-Regular-38" d="M 1626 4090 
Q 1939 4090 2172 4006 
Q 2406 3923 2566 3782 
Q 2726 3642 2806 3462 
Q 2886 3283 2886 3085 
Q 2886 2797 2697 2541 
Q 2509 2285 2118 2131 
Q 2560 1946 2774 1706 
Q 2989 1466 2989 1088 
Q 2989 806 2886 595 
Q 2784 384 2601 237 
Q 2419 90 2169 16 
Q 1920 -58 1626 -58 
Q 1338 -58 1085 19 
Q 832 96 646 237 
Q 461 378 352 579 
Q 243 781 243 1037 
Q 243 1427 444 1664 
Q 646 1901 1075 2086 
Q 749 2234 563 2474 
Q 378 2714 378 3027 
Q 378 3238 454 3430 
Q 531 3622 688 3769 
Q 845 3917 1078 4003 
Q 1312 4090 1626 4090 
z
M 909 3059 
Q 909 2912 969 2797 
Q 1030 2682 1129 2595 
Q 1229 2509 1363 2441 
Q 1498 2374 1645 2323 
Q 1792 2381 1920 2451 
Q 2048 2522 2144 2614 
Q 2240 2707 2294 2819 
Q 2349 2931 2349 3072 
Q 2349 3206 2291 3315 
Q 2234 3424 2134 3504 
Q 2035 3584 1904 3625 
Q 1773 3667 1626 3667 
Q 1446 3667 1312 3616 
Q 1178 3565 1088 3481 
Q 998 3398 953 3286 
Q 909 3174 909 3059 
z
M 1574 1882 
Q 1235 1773 1024 1584 
Q 813 1395 813 1056 
Q 813 787 1014 582 
Q 1216 378 1626 378 
Q 1811 378 1961 432 
Q 2112 486 2214 582 
Q 2317 678 2371 800 
Q 2426 922 2426 1056 
Q 2426 1216 2362 1347 
Q 2298 1478 2182 1577 
Q 2067 1677 1910 1753 
Q 1754 1830 1574 1882 
z
" transform="scale(0.015625)"/>
       </defs>
       <use xlink:href="#Mukta-Regular-31"/>
       <use xlink:href="#Mukta-Regular-39" x="36.399994"/>
       <use xlink:href="#Mukta-Regular-38" x="88.099991"/>
       <use xlink:href="#Mukta-Regular-30" x="138.599976"/>
      </g>
     </g>
    </g>
    <g id="xtick_5">
     <g id="line2d_5">
      <g>
       <use xlink:href="#me2b0eecf0c" x="337.4186" y="580.251969" style="stroke: #000000; stroke-width: 0.8"/>
      </g>
     </g>
     <g id="text_5">
      <!-- 1990 -->
      <g transform="translate(323.606725 597.191969) scale(0.14 -0.14)">
       <use xlink:href="#Mukta-Regular-31"/>
       <use xlink:href="#Mukta-Regular-39" x="36.399994"/>
       <use xlink:href="#Mukta-Regular-39" x="88.099991"/>
       <use xlink:href="#Mukta-Regular-30" x="139.799988"/>
      </g>
     </g>
    </g>
    <g id="xtick_6">
     <g id="line2d_6">
      <g>
       <use xlink:href="#me2b0eecf0c" x="396.792935" y="580.251969" style="stroke: #000000; stroke-width: 0.8"/>
      </g>
     </g>
     <g id="text_6">
      <!-- 2000 -->
      <g transform="translate(381.337153 597.191969) scale(0.14 -0.14)">
       <defs>
        <path id="Mukta-Regular-32" d="M 1434 3629 
Q 1229 3629 1043 3558 
Q 858 3488 634 3315 
L 384 3693 
Q 672 3936 931 4013 
Q 1190 4090 1434 4090 
Q 1766 4090 2006 3997 
Q 2246 3904 2406 3744 
Q 2566 3584 2643 3366 
Q 2720 3149 2720 2893 
Q 2720 2662 2624 2422 
Q 2528 2182 2352 1929 
Q 2176 1677 1926 1405 
Q 1677 1133 1363 832 
L 986 467 
L 2816 467 
L 2816 0 
L 390 0 
L 288 403 
L 819 934 
Q 1171 1286 1424 1561 
Q 1677 1837 1837 2067 
Q 1997 2298 2070 2490 
Q 2144 2682 2144 2874 
Q 2144 3200 1968 3414 
Q 1792 3629 1434 3629 
z
" transform="scale(0.015625)"/>
       </defs>
       <use xlink:href="#Mukta-Regular-32"/>
       <use xlink:href="#Mukta-Regular-30" x="48.299988"/>
       <use xlink:href="#Mukta-Regular-30" x="105.799973"/>
       <use xlink:href="#Mukta-Regular-30" x="163.299957"/>
      </g>
     </g>
    </g>
    <g id="xtick_7">
     <g id="line2d_7">
      <g>
       <use xlink:href="#me2b0eecf0c" x="456.16727" y="580.251969" style="stroke: #000000; stroke-width: 0.8"/>
      </g>
     </g>
     <g id="text_7">
      <!-- 2010 -->
      <g transform="translate(442.188051 597.191969) scale(0.14 -0.14)">
       <use xlink:href="#Mukta-Regular-32"/>
       <use xlink:href="#Mukta-Regular-30" x="48.299988"/>
       <use xlink:href="#Mukta-Regular-31" x="105.799973"/>
       <use xlink:href="#Mukta-Regular-30" x="142.199966"/>
      </g>
     </g>
    </g>
    <g id="xtick_8">
     <g id="line2d_8">
      <g>
       <use xlink:href="#me2b0eecf0c" x="515.541605" y="580.251969" style="stroke: #000000; stroke-width: 0.8"/>
      </g>
     </g>
     <g id="text_8">
      <!-- 2020 -->
      <g transform="translate(500.730042 597.191969) scale(0.14 -0.14)">
       <use xlink:href="#Mukta-Regular-32"/>
       <use xlink:href="#Mukta-Regular-30" x="48.299988"/>
       <use xlink:href="#Mukta-Regular-32" x="105.799973"/>
       <use xlink:href="#Mukta-Regular-30" x="154.09996"/>
      </g>
     </g>
    </g>
   </g>
   <g id="matplotlib.axis_2">
    <g id="ytick_1">
     <g id="line2d_9">
      <defs>
       <path id="m7fdee55f5f" d="M 0 0 
L -3.5 0 
" style="stroke: #000000; stroke-width: 0.8"/>
      </defs>
      <g>
       <use xlink:href="#m7fdee55f5f" x="77.952756" y="538.902525" style="stroke: #000000; stroke-width: 0.8"/>
      </g>
     </g>
     <g id="text_9">
      <!-- 1 -->
      <g transform="translate(65.855881 543.872525) scale(0.14 -0.14)">
       <use xlink:href="#Mukta-Regular-31"/>
      </g>
     </g>
    </g>
    <g id="ytick_2">
     <g id="line2d_10">
      <g>
       <use xlink:href="#m7fdee55f5f" x="77.952756" y="463.987328" style="stroke: #000000; stroke-width: 0.8"/>
      </g>
     </g>
     <g id="text_10">
      <!-- 2 -->
      <g transform="translate(64.191193 468.957328) scale(0.14 -0.14)">
       <use xlink:href="#Mukta-Regular-32"/>
      </g>
     </g>
    </g>
    <g id="ytick_3">
     <g id="line2d_11">
      <g>
       <use xlink:href="#m7fdee55f5f" x="77.952756" y="389.072131" style="stroke: #000000; stroke-width: 0.8"/>
      </g>
     </g>
     <g id="text_11">
      <!-- 3 -->
      <g transform="translate(64.092756 394.042131) scale(0.14 -0.14)">
       <defs>
        <path id="Mukta-Regular-33" d="M 339 3789 
Q 589 3955 857 4022 
Q 1126 4090 1370 4090 
Q 1638 4090 1865 4013 
Q 2093 3936 2253 3798 
Q 2413 3661 2502 3472 
Q 2592 3283 2592 3059 
Q 2592 2682 2397 2432 
Q 2202 2182 1920 2080 
Q 2272 2003 2502 1744 
Q 2733 1485 2733 1120 
Q 2733 794 2605 570 
Q 2477 346 2272 208 
Q 2067 70 1808 6 
Q 1549 -58 1280 -58 
Q 1011 -58 742 -6 
Q 474 45 269 141 
L 397 576 
Q 506 538 602 502 
Q 698 467 800 444 
Q 902 422 1014 409 
Q 1126 397 1274 397 
Q 1434 397 1590 435 
Q 1747 474 1868 563 
Q 1990 653 2067 790 
Q 2144 928 2144 1133 
Q 2144 1312 2077 1446 
Q 2010 1581 1891 1664 
Q 1773 1747 1613 1788 
Q 1453 1830 1261 1830 
L 781 1830 
L 781 2266 
L 1152 2266 
Q 1523 2266 1769 2445 
Q 2016 2624 2016 2995 
Q 2016 3130 1961 3248 
Q 1907 3366 1814 3452 
Q 1722 3539 1597 3590 
Q 1472 3642 1325 3642 
Q 1120 3642 941 3590 
Q 762 3539 518 3398 
L 339 3789 
z
" transform="scale(0.015625)"/>
       </defs>
       <use xlink:href="#Mukta-Regular-33"/>
      </g>
     </g>
    </g>
    <g id="ytick_4">
     <g id="line2d_12">
      <g>
       <use xlink:href="#m7fdee55f5f" x="77.952756" y="314.156934" style="stroke: #000000; stroke-width: 0.8"/>
      </g>
     </g>
     <g id="text_12">
      <!-- 4 -->
      <g transform="translate(63.449631 319.126934) scale(0.14 -0.14)">
       <defs>
        <path id="Mukta-Regular-34" d="M 2067 4032 
L 2573 4032 
L 2573 1491 
L 3206 1491 
L 3206 1024 
L 2573 1024 
L 2573 0 
L 2048 0 
L 2048 1024 
L 128 1024 
L 128 1376 
L 2067 4032 
z
M 762 1491 
L 2048 1491 
L 2048 2605 
L 2080 3411 
L 2067 3411 
L 1754 2867 
L 762 1491 
z
" transform="scale(0.015625)"/>
       </defs>
       <use xlink:href="#Mukta-Regular-34"/>
      </g>
     </g>
    </g>
    <g id="ytick_5">
     <g id="line2d_13">
      <g>
       <use xlink:href="#m7fdee55f5f" x="77.952756" y="239.241737" style="stroke: #000000; stroke-width: 0.8"/>
      </g>
     </g>
     <g id="text_13">
      <!-- 5 -->
      <g transform="translate(63.714318 244.211737) scale(0.14 -0.14)">
       <use xlink:href="#Mukta-Regular-35"/>
      </g>
     </g>
    </g>
    <g id="ytick_6">
     <g id="line2d_14">
      <g>
       <use xlink:href="#m7fdee55f5f" x="77.952756" y="164.326539" style="stroke: #000000; stroke-width: 0.8"/>
      </g>
     </g>
     <g id="text_14">
      <!-- 6 -->
      <g transform="translate(63.615881 169.296539) scale(0.14 -0.14)">
       <use xlink:href="#Mukta-Regular-36"/>
      </g>
     </g>
    </g>
   </g>
   <g id="line2d_15">
    <path d="M 99.92126 159.831628 
L 105.858693 157.584172 
L 111.796127 155.336716 
L 117.73356 151.590956 
L 123.670994 151.590956 
L 129.608427 151.590956 
L 135.545861 150.841804 
L 141.483294 150.841804 
L 147.420728 153.08926 
L 153.358161 156.83502 
L 159.295595 165.075691 
L 165.233028 179.309579 
L 171.170462 197.289226 
L 177.107895 214.519721 
L 183.045329 233.997673 
L 188.982762 247.482408 
L 194.920196 255.72308 
L 200.857629 267.709512 
L 206.795063 275.950183 
L 212.732496 280.445095 
L 218.66993 274.451879 
L 224.607363 273.702727 
L 230.544797 305.16711 
L 236.48223 308.91287 
L 242.419664 331.387429 
L 248.357097 356.858596 
L 254.294531 389.072131 
L 260.231964 389.821283 
L 266.169398 416.041602 
L 272.106831 396.563651 
L 278.044265 402.556866 
L 283.981698 421.285666 
L 289.919132 434.770401 
L 295.856565 459.492416 
L 301.793999 483.465279 
L 307.731432 489.458495 
L 313.668866 495.451711 
L 319.606299 499.197471 
L 325.543733 497.699167 
L 331.481166 496.950015 
L 337.4186 496.200863 
L 343.356033 485.712735 
L 349.293467 481.966976 
L 355.2309 489.907986 
L 361.168334 489.758156 
L 367.105767 491.40629 
L 373.043201 495.901202 
L 378.980634 498.673065 
L 384.918068 504.141874 
L 390.855501 507.063567 
L 396.792935 502.943231 
L 402.730368 515.753729 
L 408.667802 525.56762 
L 414.605235 524.593723 
L 420.542669 526.616433 
L 426.480102 532.534734 
L 432.417536 529.013719 
L 438.354969 519.499489 
L 444.292403 524.518808 
L 450.229836 527.740161 
L 456.16727 521.971691 
L 462.104703 520.623217 
L 468.042137 516.652712 
L 473.97957 524.893384 
L 479.917004 523.54491 
L 485.854437 520.997793 
L 491.791871 526.017111 
L 497.729304 535.006935 
L 503.666738 540.625575 
L 509.604171 545.045572 
L 515.541605 551.113703 
L 521.479038 553.286243 
L 527.416472 555.533699 
L 533.353905 559.803865 
L 539.291339 557.781155 
" clip-path="url(#p2d0fb606f0)" style="fill: none; stroke: #0047a0; stroke-width: 1.5; stroke-linecap: square"/>
   </g>
   <g id="AnnotationBbox_1">
    <g id="text_15">
     <!-- South Korea -->
     <g style="fill: #cd2e3a" transform="translate(70.234092 114.40353) scale(0.35 -0.35)">
      <defs>
       <path id="Mukta-Bold-53" d="M 1747 4102 
Q 2138 4102 2438 4025 
Q 2739 3949 2976 3827 
L 2778 3174 
Q 2515 3302 2272 3369 
Q 2029 3437 1798 3437 
Q 1491 3437 1321 3315 
Q 1152 3194 1152 2989 
Q 1152 2778 1299 2669 
Q 1446 2560 1773 2458 
L 2157 2336 
Q 2637 2176 2909 1881 
Q 3181 1587 3181 1158 
Q 3181 902 3085 678 
Q 2989 454 2797 288 
Q 2605 122 2317 26 
Q 2029 -70 1645 -70 
Q 922 -70 320 224 
L 518 877 
Q 794 742 1056 668 
Q 1318 595 1606 595 
Q 1946 595 2118 720 
Q 2291 845 2291 1069 
Q 2291 1146 2262 1219 
Q 2234 1293 2157 1360 
Q 2080 1427 1949 1494 
Q 1818 1562 1606 1626 
L 1267 1741 
Q 1043 1818 857 1920 
Q 672 2022 541 2156 
Q 410 2291 336 2473 
Q 262 2656 262 2899 
Q 262 3162 358 3382 
Q 454 3603 643 3763 
Q 832 3923 1110 4012 
Q 1389 4102 1747 4102 
z
" transform="scale(0.015625)"/>
       <path id="Mukta-Bold-6f" d="M 3354 1549 
Q 3354 1171 3232 870 
Q 3110 570 2896 362 
Q 2682 154 2394 42 
Q 2106 -70 1773 -70 
Q 1440 -70 1155 32 
Q 870 134 662 332 
Q 454 531 336 822 
Q 218 1114 218 1485 
Q 218 1875 339 2179 
Q 461 2483 675 2691 
Q 890 2899 1178 3008 
Q 1466 3117 1798 3117 
Q 2131 3117 2416 3014 
Q 2701 2912 2909 2717 
Q 3117 2522 3235 2227 
Q 3354 1933 3354 1549 
z
M 2477 1517 
Q 2477 1779 2419 1964 
Q 2362 2150 2266 2265 
Q 2170 2381 2042 2435 
Q 1914 2490 1779 2490 
Q 1645 2490 1523 2442 
Q 1402 2394 1306 2282 
Q 1210 2170 1152 1984 
Q 1094 1798 1094 1517 
Q 1094 1267 1152 1084 
Q 1210 902 1309 787 
Q 1408 672 1533 614 
Q 1658 557 1792 557 
Q 1926 557 2048 605 
Q 2170 653 2266 768 
Q 2362 883 2419 1065 
Q 2477 1248 2477 1517 
z
" transform="scale(0.015625)"/>
       <path id="Mukta-Bold-75" d="M 2355 3053 
L 3206 3053 
L 3206 0 
L 2573 0 
L 2483 346 
L 2458 346 
Q 2387 275 2294 201 
Q 2202 128 2077 67 
Q 1952 6 1795 -32 
Q 1638 -70 1446 -70 
Q 954 -70 669 205 
Q 384 480 384 1018 
L 384 3053 
L 1235 3053 
L 1235 1088 
Q 1235 813 1366 691 
Q 1498 570 1702 570 
Q 1933 570 2096 666 
Q 2259 762 2355 890 
L 2355 3053 
z
" transform="scale(0.015625)"/>
       <path id="Mukta-Bold-74" d="M 2208 2438 
L 1395 2438 
L 1395 1030 
Q 1395 813 1494 733 
Q 1594 653 1760 653 
Q 1888 653 2022 678 
Q 2157 704 2240 749 
L 2368 154 
Q 2259 102 2041 51 
Q 1824 0 1581 0 
Q 1024 0 787 221 
Q 550 442 550 883 
L 550 2438 
L 77 2438 
L 77 3053 
L 550 3053 
L 550 3994 
L 1395 3994 
L 1395 3053 
L 2208 3053 
L 2208 2438 
z
" transform="scale(0.015625)"/>
       <path id="Mukta-Bold-68" d="M 1248 0 
L 397 0 
L 397 4570 
L 1248 4570 
L 1248 2778 
Q 1434 2925 1674 3021 
Q 1914 3117 2195 3117 
Q 2464 3117 2665 3037 
Q 2867 2957 2998 2813 
Q 3130 2669 3194 2467 
Q 3258 2266 3258 2029 
L 3258 0 
L 2406 0 
L 2406 1882 
Q 2406 2195 2278 2329 
Q 2150 2464 1907 2464 
Q 1741 2464 1565 2384 
Q 1389 2304 1248 2170 
L 1248 0 
z
" transform="scale(0.015625)"/>
       <path id="Mukta-Bold-20" transform="scale(0.015625)"/>
       <path id="Mukta-Bold-4b" d="M 442 0 
L 442 4032 
L 1318 4032 
L 1318 2336 
L 2707 4032 
L 3795 4032 
L 2291 2272 
L 3923 0 
L 2842 0 
L 1651 1722 
L 1318 1370 
L 1318 0 
L 442 0 
z
" transform="scale(0.015625)"/>
       <path id="Mukta-Bold-72" d="M 384 0 
L 384 3053 
L 1043 3053 
L 1139 2502 
Q 1248 2746 1485 2931 
Q 1722 3117 2080 3117 
Q 2227 3117 2342 3085 
Q 2458 3053 2534 3008 
L 2394 2336 
Q 2323 2374 2214 2403 
Q 2106 2432 1958 2432 
Q 1645 2432 1437 2224 
Q 1229 2016 1229 1542 
L 1229 0 
L 384 0 
z
" transform="scale(0.015625)"/>
       <path id="Mukta-Bold-65" d="M 3104 1306 
L 1075 1306 
L 1075 1280 
Q 1075 915 1331 736 
Q 1587 557 1990 557 
Q 2246 557 2441 608 
Q 2637 659 2797 730 
L 2950 134 
Q 2778 51 2515 -9 
Q 2253 -70 1894 -70 
Q 1549 -70 1245 22 
Q 941 115 713 307 
Q 486 499 352 793 
Q 218 1088 218 1498 
Q 218 1862 326 2160 
Q 435 2458 636 2669 
Q 838 2880 1120 2998 
Q 1402 3117 1747 3117 
Q 2368 3117 2736 2739 
Q 3104 2362 3104 1683 
L 3104 1306 
z
M 2234 1888 
Q 2234 2010 2205 2125 
Q 2176 2240 2112 2326 
Q 2048 2413 1952 2464 
Q 1856 2515 1715 2515 
Q 1459 2515 1292 2342 
Q 1126 2170 1094 1875 
L 2234 1888 
z
" transform="scale(0.015625)"/>
       <path id="Mukta-Bold-61" d="M 435 2784 
Q 710 2944 1017 3030 
Q 1325 3117 1670 3117 
Q 1946 3117 2173 3053 
Q 2400 2989 2563 2851 
Q 2726 2714 2812 2499 
Q 2899 2285 2899 1984 
L 2899 0 
L 2240 0 
L 2163 314 
L 2138 314 
Q 1990 134 1763 32 
Q 1536 -70 1235 -70 
Q 986 -70 794 3 
Q 602 77 467 201 
Q 333 326 265 499 
Q 198 672 198 870 
Q 198 1133 310 1321 
Q 422 1510 620 1632 
Q 819 1754 1084 1811 
Q 1350 1869 1658 1869 
L 2042 1869 
L 2042 2054 
Q 2042 2266 1910 2365 
Q 1779 2464 1542 2464 
Q 1357 2464 1161 2406 
Q 966 2349 730 2221 
L 435 2784 
z
M 2048 1338 
L 1773 1331 
Q 1382 1318 1228 1200 
Q 1075 1082 1075 915 
Q 1075 698 1206 618 
Q 1338 538 1504 538 
Q 1670 538 1820 634 
Q 1971 730 2048 858 
L 2048 1338 
z
" transform="scale(0.015625)"/>
      </defs>
      <use xlink:href="#Mukta-Bold-53"/>
      <use xlink:href="#Mukta-Bold-6f" x="53.599991"/>
      <use xlink:href="#Mukta-Bold-75" x="109.499985"/>
      <use xlink:href="#Mukta-Bold-74" x="165.599976"/>
      <use xlink:href="#Mukta-Bold-68" x="203.799973"/>
      <use xlink:href="#Mukta-Bold-20" x="260.899963"/>
      <use xlink:href="#Mukta-Bold-4b" x="283.899948"/>
      <use xlink:href="#Mukta-Bold-6f" x="345.099945"/>
      <use xlink:href="#Mukta-Bold-72" x="400.999939"/>
      <use xlink:href="#Mukta-Bold-65" x="439.999924"/>
      <use xlink:href="#Mukta-Bold-61" x="491.899918"/>
     </g>
    </g>
    <g id="text_16">
     <!-- 's dwindling birth rate -->
     <g style="fill: #0047a0" transform="translate(260.109092 116.70353) scale(0.25 -0.25)">
      <defs>
       <path id="Mukta-Regular-27" d="M 326 4128 
L 858 4128 
L 755 2739 
L 422 2739 
L 326 4128 
z
" transform="scale(0.015625)"/>
       <path id="Mukta-Regular-73" d="M 2125 2445 
Q 1914 2547 1741 2585 
Q 1568 2624 1395 2624 
Q 1088 2624 941 2512 
Q 794 2400 794 2214 
Q 794 2080 896 1981 
Q 998 1882 1325 1786 
L 1517 1728 
Q 1946 1600 2166 1398 
Q 2387 1197 2387 851 
Q 2387 442 2083 192 
Q 1779 -58 1235 -58 
Q 947 -58 681 -6 
Q 416 45 224 134 
L 358 576 
Q 544 486 761 432 
Q 979 378 1203 378 
Q 1491 378 1660 480 
Q 1830 582 1830 819 
Q 1830 1024 1683 1110 
Q 1536 1197 1261 1280 
L 1062 1344 
Q 646 1478 444 1680 
Q 243 1882 243 2202 
Q 243 2394 326 2554 
Q 410 2714 554 2822 
Q 698 2931 896 2992 
Q 1094 3053 1331 3053 
Q 1555 3053 1795 3011 
Q 2035 2970 2253 2874 
L 2125 2445 
z
" transform="scale(0.015625)"/>
       <path id="Mukta-Regular-20" transform="scale(0.015625)"/>
       <path id="Mukta-Regular-64" d="M 2432 4544 
L 2995 4544 
L 2995 0 
L 2522 0 
L 2451 333 
L 2432 333 
Q 2234 128 2032 35 
Q 1830 -58 1523 -58 
Q 1280 -58 1053 38 
Q 826 134 646 326 
Q 467 518 358 809 
Q 250 1101 250 1498 
Q 250 1850 342 2138 
Q 435 2426 608 2630 
Q 781 2835 1030 2944 
Q 1280 3053 1600 3053 
Q 1837 3053 2051 2979 
Q 2266 2906 2432 2758 
L 2432 4544 
z
M 2432 2285 
Q 2131 2624 1722 2624 
Q 1549 2624 1385 2563 
Q 1222 2502 1097 2368 
Q 973 2234 896 2022 
Q 819 1811 819 1517 
Q 819 1210 889 995 
Q 960 781 1078 643 
Q 1197 506 1347 442 
Q 1498 378 1651 378 
Q 2131 378 2432 794 
L 2432 2285 
z
" transform="scale(0.015625)"/>
       <path id="Mukta-Regular-77" d="M 70 3008 
L 672 3008 
L 1184 1114 
L 1299 442 
L 1325 442 
L 1466 1114 
L 1984 3008 
L 2592 3008 
L 3123 1114 
L 3258 442 
L 3283 442 
L 3424 1114 
L 3923 3008 
L 4499 3008 
L 3584 0 
L 2944 0 
L 2432 1843 
L 2285 2586 
L 2131 1843 
L 1606 0 
L 998 0 
L 70 3008 
z
" transform="scale(0.015625)"/>
       <path id="Mukta-Regular-69" d="M 525 0 
L 525 3008 
L 1088 3008 
L 1088 0 
L 525 0 
z
M 806 3782 
Q 659 3782 553 3881 
Q 448 3981 448 4128 
Q 448 4275 553 4377 
Q 659 4480 806 4480 
Q 947 4480 1056 4377 
Q 1165 4275 1165 4128 
Q 1165 3981 1056 3881 
Q 947 3782 806 3782 
z
" transform="scale(0.015625)"/>
       <path id="Mukta-Regular-6e" d="M 998 0 
L 435 0 
L 435 3008 
L 877 3008 
L 960 2592 
Q 1184 2816 1430 2934 
Q 1677 3053 1997 3053 
Q 2458 3053 2720 2793 
Q 2982 2534 2982 2074 
L 2982 0 
L 2419 0 
L 2419 1990 
Q 2419 2266 2275 2429 
Q 2131 2592 1837 2592 
Q 1389 2592 998 2189 
L 998 0 
z
" transform="scale(0.015625)"/>
       <path id="Mukta-Regular-6c" d="M 461 0 
L 461 4544 
L 1011 4544 
L 1011 0 
L 461 0 
z
" transform="scale(0.015625)"/>
       <path id="Mukta-Regular-67" d="M 390 2010 
Q 390 2259 480 2454 
Q 570 2650 733 2784 
Q 896 2918 1120 2985 
Q 1344 3053 1606 3053 
Q 1702 3053 1792 3040 
Q 1882 3027 1971 3008 
L 3270 3008 
L 3270 2592 
L 3072 2592 
L 2560 2662 
Q 2682 2534 2749 2368 
Q 2816 2202 2816 2016 
Q 2816 1766 2726 1571 
Q 2637 1376 2477 1241 
Q 2317 1107 2093 1040 
Q 1869 973 1606 973 
Q 1408 973 1261 998 
Q 1114 947 1056 867 
Q 998 787 998 698 
Q 998 550 1097 499 
Q 1197 448 1363 448 
L 2157 448 
Q 2656 448 2921 221 
Q 3187 -6 3187 -397 
Q 3187 -646 3078 -844 
Q 2970 -1043 2768 -1184 
Q 2566 -1325 2278 -1398 
Q 1990 -1472 1632 -1472 
Q 979 -1472 592 -1238 
Q 205 -1005 205 -550 
Q 205 -314 355 -154 
Q 506 6 749 90 
Q 621 179 557 278 
Q 493 378 493 544 
Q 493 742 611 883 
Q 730 1024 934 1107 
Q 678 1222 534 1443 
Q 390 1664 390 2010 
z
M 1075 0 
Q 749 -147 749 -461 
Q 749 -1024 1658 -1024 
Q 1926 -1024 2112 -973 
Q 2298 -922 2413 -838 
Q 2528 -755 2582 -652 
Q 2637 -550 2637 -442 
Q 2637 -173 2454 -86 
Q 2272 0 1997 0 
L 1075 0 
z
M 2246 1997 
Q 2246 2336 2070 2496 
Q 1894 2656 1606 2656 
Q 1318 2656 1142 2496 
Q 966 2336 966 2022 
Q 966 1690 1142 1533 
Q 1318 1376 1606 1376 
Q 1894 1376 2070 1529 
Q 2246 1683 2246 1997 
z
" transform="scale(0.015625)"/>
       <path id="Mukta-Regular-62" d="M 3213 1504 
Q 3213 1146 3104 858 
Q 2995 570 2809 365 
Q 2624 160 2374 51 
Q 2125 -58 1843 -58 
Q 1549 -58 1328 25 
Q 1107 109 915 282 
L 902 282 
L 845 0 
L 442 0 
L 442 4544 
L 998 4544 
L 998 2630 
Q 1203 2848 1449 2950 
Q 1696 3053 1965 3053 
Q 2541 3053 2877 2643 
Q 3213 2234 3213 1504 
z
M 2624 1498 
Q 2624 1997 2413 2294 
Q 2202 2592 1818 2592 
Q 1574 2592 1376 2483 
Q 1178 2374 998 2176 
L 998 717 
Q 1133 563 1302 470 
Q 1472 378 1696 378 
Q 1875 378 2044 442 
Q 2214 506 2342 643 
Q 2470 781 2547 992 
Q 2624 1203 2624 1498 
z
" transform="scale(0.015625)"/>
       <path id="Mukta-Regular-72" d="M 422 0 
L 422 3008 
L 845 3008 
L 941 2406 
Q 1050 2694 1299 2873 
Q 1549 3053 1875 3053 
Q 2042 3053 2150 3027 
Q 2259 3002 2349 2963 
L 2240 2470 
Q 2163 2509 2070 2534 
Q 1978 2560 1850 2560 
Q 1664 2560 1507 2496 
Q 1350 2432 1232 2304 
Q 1114 2176 1046 1987 
Q 979 1798 979 1555 
L 979 0 
L 422 0 
z
" transform="scale(0.015625)"/>
       <path id="Mukta-Regular-74" d="M 2016 2586 
L 1133 2586 
L 1133 838 
Q 1133 614 1245 537 
Q 1357 461 1536 461 
Q 1664 461 1817 489 
Q 1971 518 2086 557 
L 2176 128 
Q 2048 77 1849 38 
Q 1651 0 1434 0 
Q 986 0 781 195 
Q 576 390 576 762 
L 576 2586 
L 128 2586 
L 128 3008 
L 576 3008 
L 576 3968 
L 1133 3968 
L 1133 3008 
L 2016 3008 
L 2016 2586 
z
" transform="scale(0.015625)"/>
       <path id="Mukta-Regular-68" d="M 1005 0 
L 442 0 
L 442 4544 
L 1005 4544 
L 1005 2624 
Q 1216 2810 1472 2931 
Q 1728 3053 2035 3053 
Q 2285 3053 2470 2979 
Q 2656 2906 2774 2774 
Q 2893 2643 2953 2464 
Q 3014 2285 3014 2074 
L 3014 0 
L 2451 0 
L 2451 1933 
Q 2451 2278 2310 2435 
Q 2170 2592 1882 2592 
Q 1664 2592 1443 2483 
Q 1222 2374 1005 2176 
L 1005 0 
z
" transform="scale(0.015625)"/>
       <path id="Mukta-Regular-61" d="M 467 2739 
Q 621 2816 755 2877 
Q 890 2938 1024 2976 
Q 1158 3014 1299 3033 
Q 1440 3053 1606 3053 
Q 1856 3053 2064 2998 
Q 2272 2944 2422 2816 
Q 2573 2688 2656 2480 
Q 2739 2272 2739 1958 
L 2739 0 
L 2272 0 
L 2202 333 
L 2189 333 
Q 1990 122 1753 32 
Q 1517 -58 1229 -58 
Q 1011 -58 828 3 
Q 646 64 512 176 
Q 378 288 304 448 
Q 230 608 230 806 
Q 230 1280 604 1526 
Q 979 1773 1594 1773 
L 2170 1773 
L 2170 2029 
Q 2170 2355 2003 2473 
Q 1837 2592 1555 2592 
Q 1389 2592 1174 2537 
Q 960 2483 685 2330 
L 467 2739 
z
M 2176 1389 
L 1702 1376 
Q 1222 1363 1020 1206 
Q 819 1050 819 826 
Q 819 691 864 598 
Q 909 506 982 454 
Q 1056 403 1155 380 
Q 1254 358 1363 358 
Q 1574 358 1792 457 
Q 2010 557 2176 774 
L 2176 1389 
z
" transform="scale(0.015625)"/>
       <path id="Mukta-Regular-65" d="M 2995 1440 
L 838 1440 
L 838 1414 
Q 838 915 1110 646 
Q 1382 378 1850 378 
Q 2093 378 2281 416 
Q 2470 454 2694 544 
L 2810 128 
Q 2624 45 2371 -6 
Q 2118 -58 1830 -58 
Q 1504 -58 1219 32 
Q 934 122 716 310 
Q 499 499 374 793 
Q 250 1088 250 1498 
Q 250 1850 355 2138 
Q 461 2426 653 2627 
Q 845 2829 1117 2941 
Q 1389 3053 1728 3053 
Q 2016 3053 2249 2957 
Q 2483 2861 2649 2688 
Q 2816 2515 2905 2272 
Q 2995 2029 2995 1734 
L 2995 1440 
z
M 2413 1843 
Q 2413 2010 2371 2154 
Q 2330 2298 2243 2406 
Q 2157 2515 2022 2579 
Q 1888 2643 1696 2643 
Q 1344 2643 1123 2419 
Q 902 2195 851 1830 
L 2413 1843 
z
" transform="scale(0.015625)"/>
      </defs>
      <use xlink:href="#Mukta-Regular-27"/>
      <use xlink:href="#Mukta-Regular-73" x="18.499985"/>
      <use xlink:href="#Mukta-Regular-20" x="59.199982"/>
      <use xlink:href="#Mukta-Regular-64" x="81.399979"/>
      <use xlink:href="#Mukta-Regular-77" x="134.999969"/>
      <use xlink:href="#Mukta-Regular-69" x="206.199951"/>
      <use xlink:href="#Mukta-Regular-6e" x="230.799942"/>
      <use xlink:href="#Mukta-Regular-64" x="284.199936"/>
      <use xlink:href="#Mukta-Regular-6c" x="337.799927"/>
      <use xlink:href="#Mukta-Regular-69" x="360.799911"/>
      <use xlink:href="#Mukta-Regular-6e" x="385.399902"/>
      <use xlink:href="#Mukta-Regular-67" x="438.799896"/>
      <use xlink:href="#Mukta-Regular-20" x="492.899887"/>
      <use xlink:href="#Mukta-Regular-62" x="515.099884"/>
      <use xlink:href="#Mukta-Regular-69" x="569.099869"/>
      <use xlink:href="#Mukta-Regular-72" x="593.69986"/>
      <use xlink:href="#Mukta-Regular-74" x="630.899857"/>
      <use xlink:href="#Mukta-Regular-68" x="667.29985"/>
      <use xlink:href="#Mukta-Regular-20" x="721.299835"/>
      <use xlink:href="#Mukta-Regular-72" x="743.499832"/>
      <use xlink:href="#Mukta-Regular-61" x="780.699829"/>
      <use xlink:href="#Mukta-Regular-74" x="829.599823"/>
      <use xlink:href="#Mukta-Regular-65" x="865.999817"/>
     </g>
    </g>
   </g>
   <g id="text_17">
    <!-- Births -->
    <g transform="translate(44.284943 140.333701) scale(0.14 -0.14)">
     <defs>
      <path id="Mukta-Light-42" d="M 1594 4032 
Q 2195 4032 2531 3773 
Q 2867 3514 2867 3014 
Q 2867 2643 2659 2435 
Q 2451 2227 2138 2144 
Q 2317 2112 2470 2032 
Q 2624 1952 2739 1824 
Q 2854 1696 2921 1520 
Q 2989 1344 2989 1126 
Q 2989 877 2883 669 
Q 2778 461 2586 313 
Q 2394 166 2125 83 
Q 1856 0 1536 0 
L 512 0 
L 512 4032 
L 1594 4032 
z
M 973 2304 
L 1459 2304 
Q 1638 2304 1808 2336 
Q 1978 2368 2109 2445 
Q 2240 2522 2317 2653 
Q 2394 2784 2394 2982 
Q 2394 3341 2147 3501 
Q 1901 3661 1504 3661 
L 973 3661 
L 973 2304 
z
M 973 371 
L 1472 371 
Q 1683 371 1868 412 
Q 2054 454 2195 550 
Q 2336 646 2419 803 
Q 2502 960 2502 1184 
Q 2502 1402 2412 1546 
Q 2323 1690 2172 1776 
Q 2022 1862 1827 1900 
Q 1632 1939 1427 1939 
L 973 1939 
L 973 371 
z
" transform="scale(0.015625)"/>
      <path id="Mukta-Light-69" d="M 518 0 
L 518 3008 
L 966 3008 
L 966 0 
L 518 0 
z
M 742 3782 
Q 614 3782 528 3865 
Q 442 3949 442 4083 
Q 442 4218 528 4304 
Q 614 4390 742 4390 
Q 858 4390 950 4307 
Q 1043 4224 1043 4083 
Q 1043 3942 953 3862 
Q 864 3782 742 3782 
z
" transform="scale(0.015625)"/>
      <path id="Mukta-Light-72" d="M 448 0 
L 448 3008 
L 768 3008 
L 851 2406 
Q 960 2694 1216 2870 
Q 1472 3046 1798 3046 
Q 1958 3046 2073 3020 
Q 2189 2995 2259 2963 
L 2176 2566 
Q 2099 2605 2003 2630 
Q 1907 2656 1779 2656 
Q 1594 2656 1434 2589 
Q 1274 2522 1152 2394 
Q 1030 2266 960 2067 
Q 890 1869 890 1613 
L 890 0 
L 448 0 
z
" transform="scale(0.015625)"/>
      <path id="Mukta-Light-74" d="M 2016 2669 
L 1069 2669 
L 1069 806 
Q 1069 544 1193 454 
Q 1318 365 1523 365 
Q 1683 365 1836 397 
Q 1990 429 2106 467 
L 2176 128 
Q 2048 77 1856 38 
Q 1664 0 1440 0 
Q 621 0 621 749 
L 621 2669 
L 128 2669 
L 128 3008 
L 621 3008 
L 621 3968 
L 1069 3968 
L 1069 3008 
L 2016 3008 
L 2016 2669 
z
" transform="scale(0.015625)"/>
      <path id="Mukta-Light-68" d="M 922 0 
L 474 0 
L 474 4544 
L 922 4544 
L 922 2611 
Q 1133 2797 1389 2921 
Q 1645 3046 1952 3046 
Q 2202 3046 2387 2972 
Q 2573 2899 2691 2768 
Q 2810 2637 2870 2461 
Q 2931 2285 2931 2074 
L 2931 0 
L 2483 0 
L 2483 1952 
Q 2483 2342 2313 2512 
Q 2144 2682 1837 2682 
Q 1613 2682 1379 2566 
Q 1146 2451 922 2246 
L 922 0 
z
" transform="scale(0.015625)"/>
      <path id="Mukta-Light-73" d="M 2074 2534 
Q 1888 2624 1718 2662 
Q 1549 2701 1363 2701 
Q 1037 2701 877 2573 
Q 717 2445 717 2240 
Q 717 2054 841 1948 
Q 966 1843 1312 1741 
L 1504 1683 
Q 1901 1562 2109 1357 
Q 2317 1152 2317 826 
Q 2317 442 2029 192 
Q 1741 -58 1203 -58 
Q 915 -58 672 -10 
Q 429 38 250 128 
L 365 480 
Q 538 390 736 342 
Q 934 294 1171 294 
Q 1498 294 1680 419 
Q 1862 544 1862 787 
Q 1862 992 1718 1110 
Q 1574 1229 1254 1331 
L 1050 1395 
Q 653 1523 461 1718 
Q 269 1914 269 2214 
Q 269 2400 345 2553 
Q 422 2707 563 2816 
Q 704 2925 893 2985 
Q 1082 3046 1312 3046 
Q 1523 3046 1753 3008 
Q 1984 2970 2182 2880 
L 2074 2534 
z
" transform="scale(0.015625)"/>
     </defs>
     <use xlink:href="#Mukta-Light-42"/>
     <use xlink:href="#Mukta-Light-69" x="51.699997"/>
     <use xlink:href="#Mukta-Light-72" x="74.899994"/>
     <use xlink:href="#Mukta-Light-74" x="111.199982"/>
     <use xlink:href="#Mukta-Light-68" x="147.299973"/>
     <use xlink:href="#Mukta-Light-73" x="200.399963"/>
    </g>
    <!-- per woman -->
    <g transform="translate(13.452131 155.481701) scale(0.14 -0.14)">
     <defs>
      <path id="Mukta-Light-70" d="M 1619 -58 
Q 1414 -58 1225 0 
Q 1037 58 902 154 
L 902 -1472 
L 461 -1472 
L 461 3046 
L 832 3046 
L 896 2662 
Q 1056 2816 1277 2931 
Q 1498 3046 1805 3046 
Q 2093 3046 2329 2950 
Q 2566 2854 2736 2665 
Q 2906 2477 2998 2201 
Q 3091 1926 3091 1574 
Q 3091 1152 2966 845 
Q 2842 538 2634 336 
Q 2426 134 2160 38 
Q 1894 -58 1619 -58 
z
M 1709 2682 
Q 1568 2682 1443 2643 
Q 1318 2605 1216 2544 
Q 1114 2483 1034 2409 
Q 954 2336 902 2266 
L 902 506 
Q 1050 397 1219 345 
Q 1389 294 1562 294 
Q 1760 294 1952 361 
Q 2144 429 2291 579 
Q 2438 730 2531 973 
Q 2624 1216 2624 1568 
Q 2624 2093 2400 2387 
Q 2176 2682 1709 2682 
z
" transform="scale(0.015625)"/>
      <path id="Mukta-Light-65" d="M 2874 1472 
L 723 1472 
L 723 1414 
Q 723 883 1011 588 
Q 1299 294 1798 294 
Q 2022 294 2214 329 
Q 2406 365 2611 448 
L 2707 115 
Q 2528 38 2288 -10 
Q 2048 -58 1779 -58 
Q 1466 -58 1190 32 
Q 915 122 707 310 
Q 499 499 377 793 
Q 256 1088 256 1498 
Q 256 1850 358 2138 
Q 461 2426 643 2627 
Q 826 2829 1085 2937 
Q 1344 3046 1664 3046 
Q 1939 3046 2160 2953 
Q 2381 2861 2541 2688 
Q 2701 2515 2787 2272 
Q 2874 2029 2874 1734 
L 2874 1472 
z
M 2413 1805 
Q 2413 1984 2368 2147 
Q 2323 2310 2230 2435 
Q 2138 2560 1990 2633 
Q 1843 2707 1638 2707 
Q 1267 2707 1027 2464 
Q 787 2221 736 1798 
L 2413 1805 
z
" transform="scale(0.015625)"/>
      <path id="Mukta-Light-20" transform="scale(0.015625)"/>
      <path id="Mukta-Light-77" d="M 70 3008 
L 538 3008 
L 1056 1114 
L 1203 358 
L 1222 358 
L 1402 1114 
L 1952 3008 
L 2432 3008 
L 2976 1114 
L 3155 358 
L 3174 358 
L 3347 1114 
L 3859 3008 
L 4307 3008 
L 3424 0 
L 2912 0 
L 2368 1907 
L 2189 2682 
L 2003 1907 
L 1446 0 
L 966 0 
L 70 3008 
z
" transform="scale(0.015625)"/>
      <path id="Mukta-Light-6f" d="M 3072 1536 
Q 3072 1158 2963 860 
Q 2854 563 2662 358 
Q 2470 154 2211 48 
Q 1952 -58 1658 -58 
Q 1357 -58 1101 41 
Q 845 141 659 336 
Q 474 531 365 816 
Q 256 1101 256 1472 
Q 256 1850 368 2144 
Q 480 2438 672 2640 
Q 864 2842 1123 2944 
Q 1382 3046 1683 3046 
Q 1978 3046 2234 2950 
Q 2490 2854 2675 2662 
Q 2861 2470 2966 2188 
Q 3072 1907 3072 1536 
z
M 2605 1504 
Q 2605 1818 2525 2045 
Q 2445 2272 2313 2416 
Q 2182 2560 2012 2627 
Q 1843 2694 1664 2694 
Q 1485 2694 1315 2630 
Q 1146 2566 1014 2425 
Q 883 2285 803 2057 
Q 723 1830 723 1504 
Q 723 1178 803 947 
Q 883 717 1017 573 
Q 1152 429 1325 361 
Q 1498 294 1677 294 
Q 1856 294 2022 355 
Q 2189 416 2320 560 
Q 2451 704 2528 934 
Q 2605 1165 2605 1504 
z
" transform="scale(0.015625)"/>
      <path id="Mukta-Light-6d" d="M 909 0 
L 461 0 
L 461 3008 
L 794 3008 
L 864 2592 
Q 1075 2803 1318 2928 
Q 1562 3053 1901 3053 
Q 2221 3053 2425 2921 
Q 2630 2790 2733 2560 
Q 2957 2797 3225 2925 
Q 3494 3053 3821 3053 
Q 4282 3053 4515 2793 
Q 4749 2534 4749 2074 
L 4749 0 
L 4301 0 
L 4301 1971 
Q 4301 2317 4157 2499 
Q 4013 2682 3648 2682 
Q 3430 2682 3212 2573 
Q 2995 2464 2822 2266 
Q 2829 2221 2829 2169 
Q 2829 2118 2829 2074 
L 2829 0 
L 2381 0 
L 2381 1971 
Q 2381 2317 2240 2499 
Q 2099 2682 1741 2682 
Q 1517 2682 1302 2566 
Q 1088 2451 909 2246 
L 909 0 
z
" transform="scale(0.015625)"/>
      <path id="Mukta-Light-61" d="M 442 2739 
Q 742 2899 995 2972 
Q 1248 3046 1555 3046 
Q 1786 3046 1981 2992 
Q 2176 2938 2320 2810 
Q 2464 2682 2544 2474 
Q 2624 2266 2624 1958 
L 2624 0 
L 2278 0 
L 2208 365 
L 2195 365 
Q 2003 141 1756 41 
Q 1510 -58 1216 -58 
Q 1005 -58 822 3 
Q 640 64 509 179 
Q 378 294 304 454 
Q 230 614 230 813 
Q 230 1050 326 1229 
Q 422 1408 598 1529 
Q 774 1651 1020 1712 
Q 1267 1773 1568 1773 
L 2176 1773 
L 2176 1997 
Q 2176 2381 1997 2531 
Q 1818 2682 1523 2682 
Q 1344 2682 1117 2627 
Q 890 2573 614 2419 
L 442 2739 
z
M 2176 1446 
L 1677 1440 
Q 1146 1427 922 1254 
Q 698 1082 698 832 
Q 698 531 883 409 
Q 1069 288 1325 288 
Q 1549 288 1779 393 
Q 2010 499 2176 742 
L 2176 1446 
z
" transform="scale(0.015625)"/>
      <path id="Mukta-Light-6e" d="M 909 0 
L 461 0 
L 461 3008 
L 800 3008 
L 870 2592 
Q 1094 2803 1340 2924 
Q 1587 3046 1907 3046 
Q 2368 3046 2630 2790 
Q 2893 2534 2893 2074 
L 2893 0 
L 2445 0 
L 2445 1990 
Q 2445 2291 2291 2486 
Q 2138 2682 1779 2682 
Q 1555 2682 1324 2570 
Q 1094 2458 909 2253 
L 909 0 
z
" transform="scale(0.015625)"/>
     </defs>
     <use xlink:href="#Mukta-Light-70"/>
     <use xlink:href="#Mukta-Light-65" x="52.299988"/>
     <use xlink:href="#Mukta-Light-72" x="101.099976"/>
     <use xlink:href="#Mukta-Light-20" x="137.399963"/>
     <use xlink:href="#Mukta-Light-77" x="159.09996"/>
     <use xlink:href="#Mukta-Light-6f" x="227.499954"/>
     <use xlink:href="#Mukta-Light-6d" x="279.499939"/>
     <use xlink:href="#Mukta-Light-61" x="360.899933"/>
     <use xlink:href="#Mukta-Light-6e" x="408.299927"/>
    </g>
   </g>
   <g id="patch_3">
    <path d="M 485.854437 463.987328 
Q 514.08313 496.69498 505.331868 536.718067 
" style="fill: none; stroke: #cd2e3a; stroke-width: 2; stroke-linecap: round"/>
    <path d="M 508.140141 533.237607 
L 505.331868 536.718067 
L 504.232464 532.383173 
" style="fill: none; stroke: #cd2e3a; stroke-width: 2; stroke-linecap: round"/>
   </g>
   <g id="AnnotationBbox_2">
    <g id="text_18">
     <!-- First time the  -->
     <g transform="translate(350.352875 437.240667) scale(0.15 -0.15)">
      <defs>
       <path id="Mukta-Regular-46" d="M 2880 4032 
L 2880 3546 
L 1101 3546 
L 1101 2240 
L 2739 2240 
L 2739 1760 
L 1101 1760 
L 1101 0 
L 512 0 
L 512 4032 
L 2880 4032 
z
" transform="scale(0.015625)"/>
       <path id="Mukta-Regular-6d" d="M 998 0 
L 435 0 
L 435 3008 
L 870 3008 
L 954 2592 
Q 1165 2803 1408 2928 
Q 1651 3053 1990 3053 
Q 2310 3053 2515 2921 
Q 2720 2790 2822 2560 
Q 3046 2797 3315 2925 
Q 3584 3053 3910 3053 
Q 4371 3053 4604 2793 
Q 4838 2534 4838 2074 
L 4838 0 
L 4275 0 
L 4275 1971 
Q 4275 2272 4147 2432 
Q 4019 2592 3725 2592 
Q 3290 2592 2912 2202 
Q 2918 2170 2918 2138 
Q 2918 2106 2918 2074 
L 2918 0 
L 2355 0 
L 2355 1971 
Q 2355 2272 2227 2432 
Q 2099 2592 1805 2592 
Q 1370 2592 998 2182 
L 998 0 
z
" transform="scale(0.015625)"/>
      </defs>
      <use xlink:href="#Mukta-Regular-46"/>
      <use xlink:href="#Mukta-Regular-69" x="48.499985"/>
      <use xlink:href="#Mukta-Regular-72" x="73.099976"/>
      <use xlink:href="#Mukta-Regular-73" x="110.299973"/>
      <use xlink:href="#Mukta-Regular-74" x="150.999969"/>
      <use xlink:href="#Mukta-Regular-20" x="187.399963"/>
      <use xlink:href="#Mukta-Regular-74" x="209.59996"/>
      <use xlink:href="#Mukta-Regular-69" x="245.999954"/>
      <use xlink:href="#Mukta-Regular-6d" x="270.599945"/>
      <use xlink:href="#Mukta-Regular-65" x="352.999939"/>
      <use xlink:href="#Mukta-Regular-20" x="403.399933"/>
      <use xlink:href="#Mukta-Regular-74" x="425.59993"/>
      <use xlink:href="#Mukta-Regular-68" x="461.999924"/>
      <use xlink:href="#Mukta-Regular-65" x="515.999908"/>
      <use xlink:href="#Mukta-Regular-20" x="566.399902"/>
     </g>
    </g>
    <g id="text_19">
     <!-- lowest -->
     <g style="fill: #cd2e3a" transform="translate(438.648968 437.240667) scale(0.15 -0.15)">
      <defs>
       <path id="Mukta-Bold-6c" d="M 410 0 
L 410 4570 
L 1248 4570 
L 1248 0 
L 410 0 
z
" transform="scale(0.015625)"/>
       <path id="Mukta-Bold-77" d="M 58 3053 
L 947 3053 
L 1338 1434 
L 1453 634 
L 1478 634 
L 1613 1434 
L 1990 3053 
L 2886 3053 
L 3270 1434 
L 3405 634 
L 3430 634 
L 3565 1434 
L 3942 3053 
L 4806 3053 
L 3962 0 
L 2970 0 
L 2573 1651 
L 2438 2387 
L 2298 1651 
L 1901 0 
L 909 0 
L 58 3053 
z
" transform="scale(0.015625)"/>
       <path id="Mukta-Bold-73" d="M 2227 2323 
Q 1850 2502 1498 2502 
Q 1293 2502 1181 2432 
Q 1069 2362 1069 2240 
Q 1069 2118 1168 2041 
Q 1267 1965 1568 1875 
L 1760 1818 
Q 2157 1702 2361 1484 
Q 2566 1267 2566 922 
Q 2566 467 2217 198 
Q 1869 -70 1274 -70 
Q 666 -70 230 147 
L 422 774 
Q 608 678 813 617 
Q 1018 557 1229 557 
Q 1485 557 1603 637 
Q 1722 717 1722 845 
Q 1722 979 1606 1052 
Q 1491 1126 1171 1216 
L 973 1274 
Q 589 1402 409 1613 
Q 230 1824 230 2176 
Q 230 2592 544 2854 
Q 858 3117 1421 3117 
Q 1978 3117 2406 2918 
L 2227 2323 
z
" transform="scale(0.015625)"/>
      </defs>
      <use xlink:href="#Mukta-Bold-6c"/>
      <use xlink:href="#Mukta-Bold-6f" x="25.899994"/>
      <use xlink:href="#Mukta-Bold-77" x="81.799988"/>
      <use xlink:href="#Mukta-Bold-65" x="157.699982"/>
      <use xlink:href="#Mukta-Bold-73" x="209.599976"/>
      <use xlink:href="#Mukta-Bold-74" x="253.09996"/>
     </g>
    </g>
    <g id="text_20">
     <!-- birthrate in the world -->
     <g transform="translate(350.352875 455.340667) scale(0.15 -0.15)">
      <defs>
       <path id="Mukta-Regular-6f" d="M 3194 1536 
Q 3194 1158 3078 860 
Q 2963 563 2761 358 
Q 2560 154 2291 48 
Q 2022 -58 1709 -58 
Q 1395 -58 1129 41 
Q 864 141 669 336 
Q 474 531 362 816 
Q 250 1101 250 1472 
Q 250 1850 365 2144 
Q 480 2438 681 2640 
Q 883 2842 1152 2947 
Q 1421 3053 1734 3053 
Q 2048 3053 2313 2957 
Q 2579 2861 2774 2669 
Q 2970 2477 3082 2192 
Q 3194 1907 3194 1536 
z
M 2605 1504 
Q 2605 1805 2528 2016 
Q 2451 2227 2326 2361 
Q 2202 2496 2042 2557 
Q 1882 2618 1715 2618 
Q 1549 2618 1389 2566 
Q 1229 2515 1107 2387 
Q 986 2259 912 2044 
Q 838 1830 838 1504 
Q 838 1203 915 988 
Q 992 774 1117 640 
Q 1242 506 1402 442 
Q 1562 378 1728 378 
Q 1894 378 2054 432 
Q 2214 486 2336 617 
Q 2458 749 2531 963 
Q 2605 1178 2605 1504 
z
" transform="scale(0.015625)"/>
      </defs>
      <use xlink:href="#Mukta-Regular-62"/>
      <use xlink:href="#Mukta-Regular-69" x="53.999985"/>
      <use xlink:href="#Mukta-Regular-72" x="78.599976"/>
      <use xlink:href="#Mukta-Regular-74" x="115.799973"/>
      <use xlink:href="#Mukta-Regular-68" x="152.199966"/>
      <use xlink:href="#Mukta-Regular-72" x="206.199951"/>
      <use xlink:href="#Mukta-Regular-61" x="243.399948"/>
      <use xlink:href="#Mukta-Regular-74" x="292.299942"/>
      <use xlink:href="#Mukta-Regular-65" x="328.699936"/>
      <use xlink:href="#Mukta-Regular-20" x="379.09993"/>
      <use xlink:href="#Mukta-Regular-69" x="401.299927"/>
      <use xlink:href="#Mukta-Regular-6e" x="425.899918"/>
      <use xlink:href="#Mukta-Regular-20" x="479.299911"/>
      <use xlink:href="#Mukta-Regular-74" x="501.499908"/>
      <use xlink:href="#Mukta-Regular-68" x="537.899902"/>
      <use xlink:href="#Mukta-Regular-65" x="591.899887"/>
      <use xlink:href="#Mukta-Regular-20" x="642.299881"/>
      <use xlink:href="#Mukta-Regular-77" x="664.499878"/>
      <use xlink:href="#Mukta-Regular-6f" x="735.69986"/>
      <use xlink:href="#Mukta-Regular-72" x="789.499847"/>
      <use xlink:href="#Mukta-Regular-6c" x="826.699844"/>
      <use xlink:href="#Mukta-Regular-64" x="849.699829"/>
     </g>
    </g>
   </g>
  </g>
 </g>
 <defs>
  <clipPath id="p2d0fb606f0">
   <rect x="77.952756" y="130.393701" width="483.307087" height="449.858268"/>
  </clipPath>
 </defs>
</svg>
